<svg xmlns="http://www.w3.org/2000/svg" viewBox="0 0 30 30"><path fill-rule="evenodd" d="M7.5 0a7.5 7.5 0 0 1 7.41 6.34h1.34V3.5a1 1 0 0 1 1-1h.5a1 1 0 0 1 1 1v2.84h.2l.01-.02 2.26-3.87c.3-.51.94-.73 1.5-.5l5.2 2.12a1.2 1.2 0 1 1-.9 2.23l-4.25-1.73-1.73 2.96.02.04 1.71 2.97 4.25-1.7A1.2 1.2 0 0 1 28.04 11l-.12.06-5.22 2.1c-.51.2-1.1.03-1.42-.41l-.07-.11-2.24-3.87a1.22 1.22 0 0 1-.06-.12h-.16v2.84a1 1 0 0 1-1 1h-.5a1 1 0 0 1-1-1V8.66h-1.34a7.48 7.48 0 0 1-1.92 3.95l5.99 9.89h7.72c.44 0 .8.37.8.83v5.84c0 .46-.36.83-.8.83H2.05a.82.82 0 0 1-.8-.83v-5.84c0-.46.36-.83.8-.83h8.01l-4.33-7.71A7.5 7.5 0 0 1 7.5 0zm17.24 25H4v2.5h20.73V25zM11.06 14.1c-.8.43-1.66.72-2.59.84l4.26 7.56h3.4l-5.07-8.4zM7.49 2.5a5 5 0 1 0 0 9.99 5 5 0 0 0 0-9.99zm0 2.5a2.5 2.5 0 1 1 0 5 2.5 2.5 0 0 1 0-5z"/></svg>
