<svg xmlns="http://www.w3.org/2000/svg" xmlns:xlink="http://www.w3.org/1999/xlink" viewBox="0 0 30 30"><defs><path id="schedulea" d="M6.5 5.38V8.1c0 .1 0 .19.03.28H3.75v18.74h20V8.38h-2.78l.02-.13.01-.14V5.38h3.88a2 2 0 0 1 2 2v20.5a2 2 0 0 1-2 2H2.63a2 2 0 0 1-2-2V7.38c0-1.11.89-2 2-2H6.5zM15.75 20c.28 0 .5.22.5.5v1.13a.5.5 0 0 1-.5.5H8a.5.5 0 0 1-.5-.5V20.5c0-.28.22-.5.5-.5h7.75zm3.75-6.25c.28 0 .5.22.5.5v1.13a.5.5 0 0 1-.5.5H8a.5.5 0 0 1-.5-.5v-1.13c0-.28.22-.5.5-.5h11.5zM15.25 0a1 1 0 0 1 1 1v2.75h2c.28 0 .5.22.5.5V9a.5.5 0 0 1-.5.5h-9a.5.5 0 0 1-.5-.5V4.25c0-.28.22-.5.5-.5h2V1a1 1 0 0 1 1-1h3z"/></defs><g  fill-rule="evenodd" transform="translate(1.25)"><mask id="scheduleb"><use xlink:href="#schedulea"/></mask><use  fill-rule="nonzero" xlink:href="#schedulea"/><path d="M-1.25 0h30v30h-30z" mask="url(#scheduleb)"/></g></svg>
