<svg viewBox="0 0 32 32" xmlns="http://www.w3.org/2000/svg"><g fill-rule="nonzero" fill="none"><g><circle stroke="#686B70" fill-opacity=".5" fill="#686B70" cx="16" cy="16" r="15.5"/><g fill="#FFF"><path d="M15 8h.8c.7 0 1.3.6 1.3 1.3v8c0 .8-.6 1.4-1.3 1.4H15c-.7 0-1.3-.6-1.3-1.4v-8c0-.7.6-1.3 1.3-1.3z"/><path d="M16.4 15.6l5 3c.7.4.9 1.3.5 1.9l-.5.8c-.3.6-1.2.8-1.8.4l-5-3c-.7-.4-.9-1.2-.5-1.9l.5-.7c.3-.7 1.2-.9 1.8-.5z"/></g></g><path d="M17.1 16l4.3 2.7c.7.3.9 1.2.5 1.8l-.5.8c-.3.6-1.2.8-1.8.4l-5-3-.4-.3c-.3-.3-.5-.6-.5-1v-8c0-.8.6-1.4 1.3-1.4h.8c.7 0 1.3.6 1.3 1.3v6.8z" fill="#FFF"/></g></svg>