<svg viewBox="0 0 32 32" xmlns="http://www.w3.org/2000/svg"><g fill-rule="nonzero" fill="none"><circle cx="16" cy="16" r="15.5" fill="#9ED12B" fill-opacity=".5" stroke="#9ED12B"/><path d="M13.8 14.7a4.3 4.3 0 0 1 2.2-8 4.3 4.3 0 0 1 1.7 8.3h-.2a4.6 4.6 0 0 1-.4.2h-.2a7 7 0 0 1-.4.1h-.2-.1a4.5 4.5 0 0 1-.4 0h-.4-.1a5.5 5.5 0 0 1-.4-.1h-.1-.1l-.2-.1-.2-.1h-.1v-.1a4.3 4.3 0 0 1-.4-.2zm9.7 4.8a9 9 0 0 1 .5 3.2H8c0-.6 0-1.8.5-3.2a6.4 6.4 0 0 1 5-4.3l.2.1.2.1.2.1a5.3 5.3 0 0 0 .4.2h.5v.1a5 5 0 0 0 .5 0h.2a5.1 5.1 0 0 0 .5 0h1l.2-.1.2-.1H18v-.1h.2v-.1a4.6 4.6 0 0 0 .4-.2c2.6.5 4.2 2 5 4.3z" fill="#FFF"/></g></svg>