<svg viewBox="0 0 48 48" xmlns="http://www.w3.org/2000/svg"><path d="M28 17h12v2H28zm0 9h12v2H28zm0-5h8v2h-8v-2z"/><path d="M27.23 7.8V3h-6.461v4.8H3V43h42V7.8H27.23zm16.155 1.6v3.2H27.23V9.4h16.154zM22.384 4.6h3.23v8h-3.23v-8zM4.615 9.4H20.77v3.2H4.615V9.4zm0 32V14.201h38.77v27.2H4.615z"/><path d="M26.787 33.71c-1.155-.475-3.883-1.412-5.572-1.905-.143-.046-.164-.053-.164-.646 0-.49.202-.981.4-1.4a7.18 7.18 0 0 0 .562-1.9c.257-.295.604-.875.832-1.98.195-.974.105-1.33-.026-1.664a2.903 2.903 0 0 1-.04-.104c-.05-.23.018-1.416.188-2.338.116-.63-.03-1.975-.91-3.087-.555-.704-1.617-1.565-3.56-1.686l-1.067.002c-1.908.119-2.973.982-3.527 1.684-.88 1.112-1.027 2.457-.911 3.087.17.922.238 2.109.19 2.334a.613.613 0 0 1-.04.108c-.13.334-.223.688-.025 1.663.223 1.106.572 1.686.83 1.982.089.683.345 1.445.562 1.9.157.332.233.783.233 1.421 0 .593-.023.601-.157.643-1.746.51-4.527 1.503-5.563 1.952C8.2 34.124 8 34.75 8 35.315v.683h1.6v-.683c0-.026.002-.045.003-.06a.47.47 0 0 1 .06-.028c.984-.427 3.712-1.399 5.405-1.894 1.274-.4 1.274-1.583 1.274-2.152 0-.876-.122-1.542-.384-2.096a5.462 5.462 0 0 1-.423-1.427l-.062-.473-.315-.36c-.048-.055-.292-.369-.471-1.258-.122-.599-.078-.71-.053-.775.042-.103.077-.204.111-.347.14-.64-.046-2.238-.177-2.95-.044-.235.018-1.102.595-1.833.507-.641 1.288-1.003 2.322-1.076l.96-.001c1.054.074 1.844.436 2.35 1.077.579.73.64 1.598.597 1.83-.13.713-.317 2.31-.178 2.954l.014.062.016.06c.022.07.046.136.08.225.026.067.07.177-.05.774-.182.89-.428 1.208-.477 1.262l-.31.358-.063.467A5.54 5.54 0 0 1 20 29.087c-.26.543-.555 1.269-.555 2.075 0 .569 0 1.753 1.313 2.164 1.6.466 4.28 1.382 5.393 1.842.17.071.23.159.248.192V36H28v-.684c0-.564-.395-1.254-1.216-1.604l.003-.001z"/></svg>
