<svg viewBox="0 0 115 115" xmlns="http://www.w3.org/2000/svg"><path d="M65.62 17.3a48.12 48.12 0 0 1 16.32 5.72c5 2.86 9.33 6.35 12.98 10.48a51.12 51.12 0 0 1 8.7 14.65 46.97 46.97 0 0 1 3.2 17.27c0 6.82-1.26 13.17-3.8 19.05a49.05 49.05 0 0 1-26.08 25.96A47.75 47.75 0 0 1 58 114.24a47.75 47.75 0 0 1-18.94-3.8 49.05 49.05 0 0 1-26.08-25.97 47.49 47.49 0 0 1-3.8-19.05c0-6.04 1.06-11.8 3.2-17.27a51.12 51.12 0 0 1 8.7-14.65 50.86 50.86 0 0 1 12.98-10.48c5-2.86 10.44-4.77 16.32-5.72-.8-.95-1.43-1.98-1.9-3.1a8.97 8.97 0 0 1-.72-3.57 10 10 0 0 1 .83-4.05 8.26 8.26 0 0 1 2.26-3.1c.96-.95 2.03-1.7 3.22-2.26C55.27.67 56.57.4 58 .4c1.43 0 2.74.28 3.93.83 1.2.56 2.26 1.31 3.22 2.27.95.8 1.7 1.82 2.26 3.1a10 10 0 0 1 .83 4.04c0 1.27-.24 2.46-.71 3.58a12.52 12.52 0 0 1-1.9 3.1zM58 4.44c-.8 0-1.59.16-2.38.48-.8.31-1.43.79-1.9 1.43a4.34 4.34 0 0 0-1.44 1.9c-.31.8-.47 1.59-.47 2.38 0 .8.16 1.55.47 2.27.32.71.8 1.38 1.43 2.02a5.6 5.6 0 0 0 1.9 1.2 6.37 6.37 0 0 0 4.76 0 5.6 5.6 0 0 0 1.92-1.2 6.76 6.76 0 0 0 1.43-2.02c.31-.72.47-1.47.47-2.27s-.16-1.59-.47-2.38c-.32-.8-.8-1.43-1.43-1.9a4.34 4.34 0 0 0-1.9-1.43A6.37 6.37 0 0 0 58 4.44zm0 105.75c6.2 0 11.99-1.19 17.39-3.57a48.92 48.92 0 0 0 14.29-9.53A48.92 48.92 0 0 0 99.2 82.8a42.6 42.6 0 0 0 3.57-17.38c0-6.2-1.2-12-3.57-17.4a48.92 48.92 0 0 0-9.53-14.28 48.92 48.92 0 0 0-14.3-9.53A42.6 42.6 0 0 0 58 20.64a42.6 42.6 0 0 0-17.39 3.57 48.92 48.92 0 0 0-14.29 9.53 48.92 48.92 0 0 0-9.53 14.29 42.6 42.6 0 0 0-3.57 17.39c0 6.19 1.2 11.98 3.57 17.38a48.92 48.92 0 0 0 9.53 14.3 48.92 48.92 0 0 0 14.3 9.52A42.6 42.6 0 0 0 58 110.2zM33.7 89.95L49.2 56.6l33.1-15.48-15.72 33.1-32.86 15.73zM51.34 61.6l-9.29 19.77 19.53-9.29L51.33 61.6zm13.34 7.63l9.05-19.53-19.53 9.05 10.48 10.48z"/></svg>
