<svg viewBox="0 0 43 33" xmlns="http://www.w3.org/2000/svg"><path d="M0 25.472v3.172c0 .448.27 1.216 1.248 1.216H12.74v1.635c0 .555.334 1.505 1.544 1.505h27.171c1.21 0 1.545-.948 1.545-1.505v-3.924c0-.85-.305-1.792-1.544-2.316-1.567-.676-5.767-2.172-8.406-2.94-.203-.064-.238-.074-.238-.966 0-.96.112-1.64.35-2.14.326-.683.711-1.832.848-2.86.388-.444.915-1.317 1.254-2.982.299-1.468.16-2.002-.038-2.503-.021-.052-.044-.105-.06-.165-.072-.336.028-2.124.286-3.512.176-.952-.046-2.974-1.375-4.65C33.237 1.48 31.629.18 28.744.001L27.134 0c-2.934.181-4.54 1.48-5.38 2.537-1.33 1.674-1.55 3.698-1.374 4.65.255 1.387.359 3.174.283 3.518-.015.053-.038.105-.058.157-.197.502-.335 1.036-.04 2.503.34 1.665.867 2.539 1.255 2.982.138 1.029.523 2.178.848 2.86.3.628.607 1.37.607 2.108 0 .893-.035.903-.252.97a83.18 83.18 0 0 0-1.805.551c-1.524-.558-3.441-1.21-4.832-1.615-.165-.051-.192-.06-.192-.781 0-.777.09-1.327.282-1.731a8.6 8.6 0 0 0 .688-2.313c.312-.358.739-1.064 1.012-2.41.242-1.186.128-1.617-.032-2.023-.016-.043-.035-.085-.047-.133-.059-.272.021-1.717.228-2.84.141-.768-.035-2.403-1.11-3.759-.678-.854-1.978-1.904-4.308-2.05h-1.3c-2.37.145-3.669 1.196-4.347 2.05-1.075 1.356-1.254 2.991-1.11 3.76.205 1.122.29 2.567.229 2.845-.012.042-.032.084-.047.127-.16.406-.272.837-.032 2.023.273 1.346.7 2.052 1.013 2.41.112.833.423 1.76.686 2.313.243.508.492 1.108.492 1.704 0 .722-.028.73-.204.785-2.061.6-5.394 1.74-6.804 2.322-1.002.423-1.481 1.264-1.481 1.95L0 25.473zm14.332 2.1c0-.233.237-.703.872-.97 1.674-.69 5.778-2.084 8.27-2.808 1.394-.431 1.394-1.613 1.394-2.476 0-1.046-.384-1.99-.76-2.777a9.175 9.175 0 0 1-.711-2.398l-.062-.464-.312-.354c-.171-.196-.602-.81-.897-2.267-.23-1.138-.129-1.397-.04-1.626l.002-.003.014-.039c.033-.08.062-.161.085-.24l.017-.057.012-.059c.162-.75-.05-2.91-.273-4.126-.102-.547.025-2.097 1.062-3.403.922-1.16 2.327-1.812 4.178-1.936l1.507.002c2.267.152 3.497 1.134 4.131 1.934 1.037 1.306 1.163 2.856 1.063 3.4-.219 1.187-.436 3.381-.275 4.122l.008.033.009.033c.033.127.074.24.121.354.082.211.185.475-.045 1.61-.296 1.459-.726 2.069-.898 2.263l-.312.356-.061.467a9.016 9.016 0 0 1-.712 2.395c-.342.72-.5 1.611-.5 2.81 0 .861 0 2.04 1.347 2.462 2.569.748 6.74 2.23 8.25 2.881.449.19.59.403.59.879v3.858H14.341l-.007-3.858-.002.003zm-12.74-2.1c.004-.061.102-.332.518-.508 1.365-.564 4.655-1.685 6.627-2.26 1.345-.421 1.345-1.591 1.345-2.29 0-.902-.325-1.705-.644-2.372a7.21 7.21 0 0 1-.548-1.85l-.062-.465-.31-.354c-.097-.11-.427-.557-.657-1.695-.17-.833-.102-1.007-.047-1.146l.009-.021.006-.021c.033-.08.054-.145.073-.21l.018-.058.012-.058c.156-.724-.068-2.638-.219-3.454-.07-.385.034-1.547.8-2.514.688-.864 1.745-1.352 3.144-1.448h1.197c1.71.12 2.632.851 3.106 1.448.765.965.87 2.13.8 2.514-.161.863-.37 2.754-.222 3.446l.008.033.007.033c.03.11.066.21.105.31.055.138.123.314-.046 1.146-.232 1.14-.561 1.584-.657 1.693l-.31.355-.062.464a7.065 7.065 0 0 1-.55 1.852c-.297.623-.435 1.385-.435 2.398 0 .7 0 1.871 1.304 2.278.824.24 1.85.573 2.865.922-1.675.565-3.272 1.138-4.195 1.518-1.242.525-1.835 1.563-1.835 2.413v.72H1.589v-2.819h.003z"/></svg>
