<svg xmlns="http://www.w3.org/2000/svg" xmlns:xlink="http://www.w3.org/1999/xlink" viewBox="0 0 16 16"><defs><path id="eye" d="M15.82 7.63A8.99 8.99 0 0 0 8 3 8.99 8.99 0 0 0 .18 7.63c-.24.43-.24.97 0 1.41A8.99 8.99 0 0 0 8 13.67a8.99 8.99 0 0 0 7.82-4.63c.24-.44.24-.98 0-1.41zm-8.4 4.85c-2.2 0-4-1.85-4-4.15 0-2.29 1.8-4.14 4-4.14 2.22 0 4 1.85 4 4.14 0 2.3-1.78 4.15-4 4.15zm2.87-4.15a2.91 2.91 0 0 1-2.86 2.97 2.91 2.91 0 0 1-2.86-2.97c0-.5.12-.98.34-1.4 0 .68.52 1.23 1.17 1.23a1.2 1.2 0 0 0 1.18-1.22 1.2 1.2 0 0 0-1.18-1.22c.4-.22.86-.35 1.35-.35a2.91 2.91 0 0 1 2.86 2.96z"/></defs><use xlink:href="#eye"/></svg>
