<svg xmlns="http://www.w3.org/2000/svg" xmlns:xlink="http://www.w3.org/1999/xlink" viewBox="0 0 24 30"><defs><path id="reporta" d="M10.49 22.1c.48.74 1.5.87 2.15.28l4.71-6.07v-3.78l-5.39 6.6-2.86-4.3a1.44 1.44 0 0 0-2.42.04l-1.6 3.4v5l2.86-5 2.55 3.84zM22.5 7.74v19.46A2.81 2.81 0 0 1 19.69 30H2.8A2.81 2.81 0 0 1 0 27.19V2.8A2.81 2.81 0 0 1 2.81 0h11.96c.75 0 1.46.3 1.99.83 2.86 2.77 4.5 4.41 4.91 4.91.42.5.7 1.16.83 1.99zM15 3.04V7.5h4.46m.23 19.69V10.3h-6.1a1.4 1.4 0 0 1-1.4-1.4V2.8H2.8V27.2"/></defs><g fill-rule="evenodd" transform="translate(.75)"><mask id="reportb"><use xlink:href="#reporta"/></mask><use fill-rule="nonzero" xlink:href="#reporta"/><g mask="url(#reportb)"><path d="M-3.75 0h30v30h-30z"/></g></g></svg>
