<svg xmlns="http://www.w3.org/2000/svg" xmlns:xlink="http://www.w3.org/1999/xlink" viewBox="0 0 30 30"><defs><path id="calendara" d="M24.1 3.75h-2.89V.7c0-.39-.32-.7-.72-.7h-2.41c-.4 0-.72.31-.72.7v3.05H9.64V.7c0-.39-.32-.7-.72-.7H6.51c-.4 0-.72.31-.72.7v3.05h-2.9C1.3 3.75 0 5.01 0 6.56V27.2C0 28.74 1.3 30 2.9 30h21.2c1.6 0 2.9-1.26 2.9-2.81V6.56c0-1.55-1.3-2.81-2.9-2.81zm-.35 23.44H3.25c-.2 0-.36-.14-.36-.3V11.87h21.22V26.9c0 .16-.16.3-.36.3zm-6.22-11.15l.96.91c.2.19.2.5 0 .68l-6.06 5.63a.54.54 0 0 1-.73 0l-3.2-3.02a.46.46 0 0 1 0-.68l.98-.9c.2-.18.52-.18.72 0l1.88 1.78 4.73-4.4c.2-.19.53-.18.72 0zm6.64-9.41v2.5H2.96v-2.5h21.21z"/></defs><g fill-rule="evenodd" transform="translate(2)"><mask id="calendarb"><use xlink:href="#calendara"/></mask><use fill-rule="nonzero" xlink:href="#calendara"/><g mask="url(#calendarb)"><path d="M-2.36 0h30.72v30H-2.36z"/></g></g></svg>
