<svg viewBox="0 0 512 512" xmlns="http://www.w3.org/2000/svg" xmlns:xlink="http://www.w3.org/1999/xlink"><defs><rect id="managa" width="512" height="512" rx="114"/><linearGradient x1="73.2%" y1="50%" x2="28.1%" y2="50%" id="d"><stop stop-color="#B1F41B" offset="0%"/><stop stop-color="#70CC23" offset="100%"/></linearGradient><path d="M24 0h272v256H24a24 24 0 0 1-24-24V24A24 24 0 0 1 24 0z" id="c"/><path d="M4 176h60a16 16 0 0 1 16 16v128a16 16 0 0 1-16 16H4V176z" id="f"/><filter x="-18.4%" y="-8.8%" width="136.8%" height="117.5%" filterUnits="objectBoundingBox" id="g"><feGaussianBlur stdDeviation="8.5" in="SourceAlpha" result="shadowBlurInner1"/><feOffset dx="-11" dy="-9" in="shadowBlurInner1" result="shadowOffsetInner1"/><feComposite in="shadowOffsetInner1" in2="SourceAlpha" operator="arithmetic" k2="-1" k3="1" result="shadowInnerInner1"/><feColorMatrix values="0 0 0 0 0.376470588 0 0 0 0 0.470588235 0 0 0 0 0.917647059 0 0 0 1 0" in="shadowInnerInner1"/></filter><path d="M400.5 19.3v477.4" id="i"/><filter x="-3600%" y="-7%" width="6300%" height="113.1%" filterUnits="objectBoundingBox" id="h"><feMorphology radius="8" operator="dilate" in="SourceAlpha" result="shadowSpreadOuter1"/><feOffset dx="-5" dy="-2" in="shadowSpreadOuter1" result="shadowOffsetOuter1"/><feMorphology radius="8" in="SourceAlpha" result="shadowInner"/><feOffset dx="-5" dy="-2" in="shadowInner" result="shadowInner"/><feComposite in="shadowOffsetOuter1" in2="shadowInner" operator="out" result="shadowOffsetOuter1"/><feGaussianBlur stdDeviation="7" in="shadowOffsetOuter1" result="shadowBlurOuter1"/><feColorMatrix values="0 0 0 0 0.0466904177 0 0 0 0 0.0510402059 0 0 0 0 0.0568399235 0 0 0 1 0" in="shadowBlurOuter1"/></filter><linearGradient x1="50%" y1="1.7%" x2="50%" y2="95.5%" id="l"><stop stop-color="#41474D" offset="0%"/><stop stop-color="#222529" offset="100%"/></linearGradient><rect id="k" width="512" height="512" rx="114"/><filter x="-2.1%" y="-2.1%" width="104.3%" height="104.3%" filterUnits="objectBoundingBox" id="j"><feMorphology radius="2.5" operator="dilate" in="SourceAlpha" result="shadowSpreadOuter1"/><feOffset in="shadowSpreadOuter1" result="shadowOffsetOuter1"/><feMorphology radius="18.5" in="SourceAlpha" result="shadowInner"/><feOffset in="shadowInner" result="shadowInner"/><feComposite in="shadowOffsetOuter1" in2="shadowInner" operator="out" result="shadowOffsetOuter1"/><feGaussianBlur stdDeviation="2" in="shadowOffsetOuter1" result="shadowBlurOuter1"/><feColorMatrix values="0 0 0 0 0 0 0 0 0 0 0 0 0 0 0 0 0 0 0.5 0" in="shadowBlurOuter1"/></filter><linearGradient x1="83.6%" y1="50%" x2="54.6%" y2="50%" id="n"><stop stop-color="#B1F41B" offset="0%"/><stop stop-color="#70CC23" offset="100%"/></linearGradient><rect id="m" width="259" height="96" rx="8"/><linearGradient x1="73.6%" y1="50%" x2="32.8%" y2="50%" id="q"><stop stop-color="#B1F41B" offset="0%"/><stop stop-color="#70CC23" offset="100%"/></linearGradient><rect id="p" width="116" height="96" rx="8"/><path d="M314.5 12v482.7" id="t"/><filter x="-3600%" y="-6.9%" width="6300%" height="113%" filterUnits="objectBoundingBox" id="s"><feMorphology radius="8" operator="dilate" in="SourceAlpha" result="shadowSpreadOuter1"/><feOffset dx="-5" dy="-2" in="shadowSpreadOuter1" result="shadowOffsetOuter1"/><feMorphology radius="8" in="SourceAlpha" result="shadowInner"/><feOffset dx="-5" dy="-2" in="shadowInner" result="shadowInner"/><feComposite in="shadowOffsetOuter1" in2="shadowInner" operator="out" result="shadowOffsetOuter1"/><feGaussianBlur stdDeviation="7" in="shadowOffsetOuter1" result="shadowBlurOuter1"/><feColorMatrix values="0 0 0 0 0.0466904177 0 0 0 0 0.0510402059 0 0 0 0 0.0568399235 0 0 0 1 0" in="shadowBlurOuter1"/></filter><rect id="v" width="512" height="512" rx="115"/><filter x="-2.1%" y="-2.1%" width="104.3%" height="104.3%" filterUnits="objectBoundingBox" id="u"><feMorphology radius="2.5" operator="dilate" in="SourceAlpha" result="shadowSpreadOuter1"/><feOffset in="shadowSpreadOuter1" result="shadowOffsetOuter1"/><feMorphology radius="18.5" in="SourceAlpha" result="shadowInner"/><feOffset in="shadowInner" result="shadowInner"/><feComposite in="shadowOffsetOuter1" in2="shadowInner" operator="out" result="shadowOffsetOuter1"/><feGaussianBlur stdDeviation="2" in="shadowOffsetOuter1" result="shadowBlurOuter1"/><feColorMatrix values="0 0 0 0 0 0 0 0 0 0 0 0 0 0 0 0 0 0 0.5 0" in="shadowBlurOuter1"/></filter><rect id="x" width="512" height="512" rx="115"/><filter x="-2.1%" y="-2.1%" width="104.3%" height="104.3%" filterUnits="objectBoundingBox" id="w"><feMorphology radius="2.5" operator="dilate" in="SourceAlpha" result="shadowSpreadOuter1"/><feOffset in="shadowSpreadOuter1" result="shadowOffsetOuter1"/><feMorphology radius="18.5" in="SourceAlpha" result="shadowInner"/><feOffset in="shadowInner" result="shadowInner"/><feComposite in="shadowOffsetOuter1" in2="shadowInner" operator="out" result="shadowOffsetOuter1"/><feGaussianBlur stdDeviation="2" in="shadowOffsetOuter1" result="shadowBlurOuter1"/><feColorMatrix values="0 0 0 0 0 0 0 0 0 0 0 0 0 0 0 0 0 0 0.5 0" in="shadowBlurOuter1"/></filter><circle id="y" cx="150" cy="150" r="150"/><linearGradient x1="49.3%" y1=".7%" x2="49.3%" y2="87.3%" id="z"><stop stop-color="#B1F41B" offset="0%"/><stop stop-color="#1FBD00" offset="100%"/></linearGradient><linearGradient x1="49.3%" y1=".7%" x2="49.3%" y2="87.3%" id="B"><stop stop-color="#B1F41B" offset="0%"/><stop stop-color="#1FBD00" offset="100%"/></linearGradient><linearGradient x1="49.3%" y1=".7%" x2="49.3%" y2="87.3%" id="C"><stop stop-color="#B1F41B" offset="0%"/><stop stop-color="#1FBD00" offset="100%"/></linearGradient><linearGradient x1="49.3%" y1=".7%" x2="49.3%" y2="87.3%" id="D"><stop stop-color="#B1F41B" offset="0%"/><stop stop-color="#1FBD00" offset="100%"/></linearGradient><rect id="E" width="480" height="480" rx="100"/></defs><g fill="none" fill-rule="evenodd"><mask id="b" fill="#fff"><use xlink:href="#managa"/></mask><use fill="#2D3136" fill-rule="nonzero" xlink:href="#managa"/><g mask="url(#b)"><path fill="#222529" d="M0 0h512v512H0z"/><g transform="translate(112 128)"><mask id="e" fill="#fff"><use xlink:href="#c"/></mask><use fill="url(#d)" fill-rule="nonzero" xlink:href="#c"/><g mask="url(#e)" fill="#70CC23" fill-opacity=".3" fill-rule="nonzero"><path style="mix-blend-mode:multiply" d="M-44.3-18.5L-24.5-30 193 346.8l-19.8 11.4zM-104 16l19.8-11.4 217.5 376.7-19.8 11.4zM15.4-53l19.7-11.4 217.6 376.8-19.8 11.4zM75.1-87.4l19.7-11.4 217.6 376.7-19.8 11.4zM134.8-121.9l19.7-11.4L372 243.5l-19.7 11.3z"/></g></g><g fill-rule="nonzero"><use fill="#6078EA" xlink:href="#f"/><use fill="#000" filter="url(#g)" xlink:href="#f"/></g><path d="M84.1 456c2.3 0 4.1 1.8 4.1 4.1V492a4.1 4.1 0 1 1-8.2 0V460c0-2.3 1.8-4.1 4.1-4.1zM212.1 456c2.3 0 4.1 1.8 4.1 4.1V500a4.1 4.1 0 1 1-8.2 0V460c0-2.3 1.8-4.1 4.1-4.1zM340.1 456c2.3 0 4.1 1.8 4.1 4.1V500a4.1 4.1 0 1 1-8.2 0V460c0-2.3 1.8-4.1 4.1-4.1zM116.1 456c2.3 0 4.1 1.8 4.1 4.1V500a4.1 4.1 0 1 1-8.2 0V460c0-2.3 1.8-4.1 4.1-4.1zM244.1 456c2.3 0 4.1 1.8 4.1 4.1V500a4.1 4.1 0 1 1-8.2 0V460c0-2.3 1.8-4.1 4.1-4.1zM148.1 456c2.3 0 4.1 1.8 4.1 4.1V500a4.1 4.1 0 1 1-8.2 0V460c0-2.3 1.8-4.1 4.1-4.1zM276.1 456c2.3 0 4.1 1.8 4.1 4.1V500a4.1 4.1 0 1 1-8.2 0V460c0-2.3 1.8-4.1 4.1-4.1zM180.1 432c2.3 0 4.1 1.8 4.1 4.1V500a4.1 4.1 0 1 1-8.2 0V436c0-2.3 1.8-4.1 4.1-4.1zM308.1 432c2.3 0 4.1 1.8 4.1 4.1V500a4.1 4.1 0 1 1-8.2 0V436c0-2.3 1.8-4.1 4.1-4.1zM372.3 456a4 4 0 0 1 4 4v40a4 4 0 1 1-8 0v-40a4 4 0 0 1 4-4z" fill="#606469" fill-rule="nonzero"/><g transform="matrix(1 0 0 -1 80 72)" fill="#606469" fill-rule="nonzero"><rect y="24" width="8" height="40" rx="4"/><rect x="128" y="24" width="8" height="40" rx="4"/><rect x="256" y="24" width="8" height="40" rx="4"/><rect x="32" y="24" width="8" height="40" rx="4"/><rect x="160" y="24" width="8" height="40" rx="4"/><rect x="64" y="24" width="8" height="40" rx="4"/><rect x="192" y="24" width="8" height="40" rx="4"/><rect x="96" width="8" height="64" rx="4"/><rect x="224" width="8" height="64" rx="4"/><rect x="288" y="24" width="8" height="40" rx="4"/></g><g stroke-linecap="square" fill-rule="nonzero"><use fill="#000" filter="url(#h)" xlink:href="#i"/><use stroke="#FFF" stroke-width="16" xlink:href="#i"/></g><g fill-rule="nonzero"><use fill="#000" filter="url(#j)" xlink:href="#k"/><rect stroke="url(#l)" stroke-width="16" stroke-linejoin="square" x="8" y="8" width="496" height="496" rx="114"/></g></g><g mask="url(#b)"><path fill="#2D3136" d="M0 0h512v512H0z"/><g transform="translate(6 6)"><rect fill="#6078EA" fill-rule="nonzero" y="269" width="162" height="96" rx="8"/><rect fill="#606469" fill-rule="nonzero" y="421" width="365" height="80" rx="8"/><rect fill="#6078EA" fill-rule="nonzero" width="162" height="52" rx="8"/><rect fill="#606469" fill-rule="nonzero" x="351" y="116" width="155" height="88" rx="8"/><g transform="translate(52 117)"><mask id="o" fill="#fff"><use xlink:href="#m"/></mask><use fill="url(#n)" fill-rule="nonzero" xlink:href="#m"/><g mask="url(#o)" fill="#70CC23" fill-opacity=".3" fill-rule="nonzero"><path style="mix-blend-mode:multiply" d="M105-3l5.5-3 68.4 118.5-5.4 3.1zM213.7-6.8l5.4-3 68.5 118.5-5.4 3.1zM-7.3-7.4l5.5-3L66.6 108l-5.4 3.1zM88.6 6.6L94 3.5 162.4 122l-5.3 3.1zM197.2 2.7l5.4-3 68.5 118.5-5.4 3.1zM-23.8 2.2l5.4-3.1 68.5 118.5-5.4 3.1zM121.5-12.4l5.4-3.1L195.4 103l-5.4 3.1zM-98-12.7l5.3-3 68.5 118.5-5.4 3.1zM230.2-16.3l5.4-3L304 99.1l-5.4 3.1zM9.2-16.9l5.4-3L83.1 98.5l-5.4 3.1zM138.8-22.4l5.5-3.1 71.5 123.8-5.5 3.1zM37.2-6.4l5.4-3.2 63 109.2-5.4 3zM168.7-8.6l5.5-3.1 63.5 110-5.4 3.1zM42.1-35.9l5.4-3L128 100.3l-5.4 3.2z"/></g></g><g transform="translate(195 269)"><mask id="r" fill="#fff"><use xlink:href="#p"/></mask><use fill="url(#q)" fill-rule="nonzero" xlink:href="#p"/><g mask="url(#r)" fill="#70CC23" fill-opacity=".3" fill-rule="nonzero"><path style="mix-blend-mode:multiply" d="M-38-3l5.5-3 68.4 118.5-5.4 3.1zM-257.5-3.2l5.4-3 68.4 118.5-5.4 3.1zM70.7-6.8l5.4-3 68.5 118.5-5.4 3.1zM-150.3-7.4l5.5-3L-76.4 108l-5.4 3.1zM-54.4 6.6l5.4-3.1L19.4 122l-5.3 3.1zM54.2 2.7l5.4-3 68.5 118.5-5.4 3.1zM-21.5-12.4l5.4-3.1L52.4 103l-5.4 3.1zM87.2-16.3l5.4-3L161 99.1l-5.4 3.1zM8.3-.8l5.5-3 60 103.8-5.5 3.2zM32.8 3.6L38.2.5l59 102.2-5.4 3z"/></g></g></g><g stroke-linecap="square" fill-rule="nonzero"><use fill="#000" filter="url(#s)" xlink:href="#t"/><use stroke="#FFF" stroke-width="16" xlink:href="#t"/></g><path d="M113 1h286a113 113 0 0 1 113 113v285a113 113 0 0 1-113 113H113A113 113 0 0 1 0 399V114A113 113 0 0 1 113 1zm152.6 86a169 169 0 1 0-17.7 337.5A169 169 0 0 0 265.6 87z" fill-opacity=".6" fill="#0C0D0E" fill-rule="nonzero"/><path d="M266.4 67.3a12 12 0 1 1-2.2 23.9 12 12 0 1 1 2.2-24zm-2.1-.1a12 12 0 1 1-2 23.9 12 12 0 1 1 2-24zM262 67a12 12 0 1 1-1.6 24 12 12 0 1 1 1.6-24zm-2.1 0a12 12 0 1 1-1.4 24 12 12 0 1 1 1.4-24zm-2.1-.1a12 12 0 1 1-1.2 24 12 12 0 1 1 1.2-24zm-2.2 0a12 12 0 1 1-.8 24 12 12 0 1 1 .8-24zm-2.1 0a12 12 0 1 1-.6 24 12 12 0 1 1 .6-24zm-2.2 0a12 12 0 1 1-.2 24 12 12 0 1 1 .2-24zm-2 .1a12 12 0 1 1-.1 24 12 12 0 1 1 0-24zm-2.2.1a12 12 0 1 1 .2 24 12 12 0 1 1-.2-24zm-2.2.1a12 12 0 1 1 .6 24 12 12 0 1 1-.6-24zm-2 .2a12 12 0 1 1 .7 24 12 12 0 1 1-.8-24zm-2.2.1a12 12 0 1 1 1 24 12 12 0 1 1-1-24zm-2.2.2a12 12 0 1 1 1.4 24 12 12 0 1 1-1.4-24zm-2 .2a12 12 0 1 1 1.5 24 12 12 0 1 1-1.6-24zm-2.2.3a12 12 0 1 1 1.9 24 12 12 0 1 1-1.9-24zm-2.1.2a12 12 0 1 1 2.1 24 12 12 0 1 1-2.1-24zm-2.1.3a12 12 0 1 1 2.4 24 12 12 0 1 1-2.4-24zm-2.1.3a12 12 0 1 1 2.6 24 12 12 0 1 1-2.6-24zm-2.2.4a12 12 0 1 1 3 23.8 12 12 0 1 1-3-23.8zm-2 .3a12 12 0 1 1 3.2 23.8 12 12 0 1 1-3.3-23.8zm-2.2.4a12 12 0 1 1 3.5 23.8 12 12 0 1 1-3.5-23.8zm-2 .4a12 12 0 1 1 3.7 23.7 12 12 0 1 1-3.8-23.7zm-2.2.5a12 12 0 1 1 4 23.6 12 12 0 1 1-4-23.6zm-2 .4a12 12 0 1 1 4.3 23.6 12 12 0 1 1-4.4-23.6zm-2.2.5a12 12 0 1 1 4.6 23.6 12 12 0 1 1-4.6-23.6zm-2 .5A12 12 0 1 1 216 96a12 12 0 1 1-4.8-23.5zm-2 .5a12 12 0 1 1 5 23.5 12 12 0 1 1-5-23.5zm-2.1.6a12 12 0 1 1 5.4 23.4 12 12 0 1 1-5.4-23.4zm-2.1.5a12 12 0 1 1 5.6 23.4 12 12 0 1 1-5.6-23.4zm-2 .6A12 12 0 1 1 209 98a12 12 0 1 1-6-23.3zm-2.1.7a12 12 0 1 1 6.2 23.2 12 12 0 1 1-6.2-23.2zm-2 .6a12 12 0 1 1 6.4 23.1A12 12 0 1 1 199 76zm-2 .7a12 12 0 1 1 6.6 23 12 12 0 1 1-6.7-23zm-2.1.6a12 12 0 1 1 7 23 12 12 0 1 1-7-23zm-2 .8A12 12 0 1 1 200 101a12 12 0 1 1-7.2-23zm-2 .7a12 12 0 1 1 7.5 22.8 12 12 0 1 1-7.5-22.8zm-2 .8a12 12 0 1 1 7.7 22.7 12 12 0 1 1-7.7-22.7zm-2 .7a12 12 0 1 1 8 22.7 12 12 0 1 1-8-22.7zm-2 .8a12 12 0 1 1 8.3 22.6 12 12 0 1 1-8.3-22.6zm-2 .9a12 12 0 1 1 8.6 22.4 12 12 0 1 1-8.6-22.4zm-2 .8a12 12 0 1 1 8.9 22.4 12 12 0 1 1-8.8-22.4zm-1.9.9a12 12 0 1 1 9 22.2 12 12 0 1 1-9-22.2zm-2 .9a12 12 0 1 1 9.4 22.1 12 12 0 1 1-9.3-22.1zm-1.9 1a12 12 0 1 1 9.6 22 12 12 0 1 1-9.6-22zm-1.9.8a12 12 0 1 1 9.8 22 12 12 0 1 1-9.8-22zm-2 1a12 12 0 1 1 10.1 21.8 12 12 0 1 1-10-21.8zm-1.8 1a12 12 0 1 1 10.3 21.7 12 12 0 1 1-10.3-21.7zm-2 1A12 12 0 1 1 178 111a12 12 0 1 1-10.5-21.6zm-1.8 1a12 12 0 1 1 10.8 21.5 12 12 0 1 1-10.8-21.5zm-1.9 1a12 12 0 1 1 11 21.4 12 12 0 1 1-11-21.3zm-1.8 1.1a12 12 0 1 1 11.3 21.2 12 12 0 1 1-11.3-21.2zm-1.8 1.1a12 12 0 1 1 11.5 21 12 12 0 1 1-11.5-21zm-1.9 1.1a12 12 0 1 1 11.8 21 12 12 0 1 1-11.8-21zm-1.7 1.1a12 12 0 1 1 12 20.8 12 12 0 1 1-12-20.8zm-1.8 1.2a12 12 0 1 1 12.2 20.6A12 12 0 1 1 154.7 97zm-1.8 1.1a12 12 0 1 1 12.4 20.6A12 12 0 1 1 153 98zm-1.8 1.2a12 12 0 1 1 12.7 20.4A12 12 0 1 1 151 99.3zm-1.8 1.2a12 12 0 1 1 13 20.3 12 12 0 1 1-13-20.3zm-1.7 1.3a12 12 0 1 1 13.1 20 12 12 0 1 1-13.1-20zm-1.8 1.2a12 12 0 1 1 13.4 20 12 12 0 1 1-13.4-20zm-1.7 1.3a12 12 0 1 1 13.6 19.8 12 12 0 1 1-13.6-19.8zm-1.7 1.3a12 12 0 1 1 13.8 19.6 12 12 0 1 1-13.8-19.6zm-1.7 1.3a12 12 0 1 1 14 19.5 12 12 0 1 1-14-19.5zm-1.6 1.3a12 12 0 1 1 14.2 19.3 12 12 0 1 1-14.2-19.3zm-1.7 1.3a12 12 0 1 1 14.5 19.2 12 12 0 1 1-14.5-19.2zm-1.7 1.4a12 12 0 1 1 14.7 19 12 12 0 1 1-14.7-19zm-1.6 1.4a12 12 0 1 1 15 18.8 12 12 0 1 1-15-18.8zm-1.6 1.4a12 12 0 1 1 15.1 18.7 12 12 0 1 1-15.1-18.7zm-1.6 1.4a12 12 0 1 1 15.3 18.5 12 12 0 1 1-15.3-18.5zm-1.6 1.4a12 12 0 1 1 15.5 18.4 12 12 0 1 1-15.5-18.4zm-1.6 1.5a12 12 0 1 1 15.8 18.1 12 12 0 1 1-15.8-18.1zm-1.5 1.5a12 12 0 1 1 16 18 12 12 0 1 1-16-18zm-1.5 1.5a12 12 0 1 1 16.1 17.7 12 12 0 1 1-16.1-17.7zm-1.6 1.5a12 12 0 1 1 16.4 17.6 12 12 0 1 1-16.4-17.6zm-1.5 1.5a12 12 0 1 1 16.6 17.4 12 12 0 1 1-16.6-17.4zm-1.4 1.5a12 12 0 1 1 16.7 17.3 12 12 0 1 1-16.7-17.3zm-1.5 1.6a12 12 0 1 1 17 17 12 12 0 1 1-17-17zm-1.5 1.5a12 12 0 1 1 17.2 16.9 12 12 0 1 1-17.2-16.9zm-1.4 1.6a12 12 0 1 1 17.3 16.7 12 12 0 1 1-17.3-16.7zm-1.4 1.6a12 12 0 1 1 17.5 16.5 12 12 0 1 1-17.5-16.5zm-1.4 1.7a12 12 0 1 1 17.7 16.2 12 12 0 1 1-17.7-16.2zm-1.4 1.6a12 12 0 1 1 17.9 16 12 12 0 1 1-17.9-16zm-1.3 1.7a12 12 0 1 1 18 15.8 12 12 0 1 1-18-15.8zm-1.4 1.6a12 12 0 1 1 18.2 15.7 12 12 0 1 1-18.2-15.7zm-1.3 1.7a12 12 0 1 1 18.4 15.5 12 12 0 1 1-18.4-15.5zm-1.3 1.7a12 12 0 1 1 18.6 15.2 12 12 0 1 1-18.6-15.2zm-1.3 1.7a12 12 0 1 1 18.8 15 12 12 0 1 1-18.8-15zm-1.2 1.7a12 12 0 1 1 18.9 14.9 12 12 0 1 1-19-14.9zm-1.3 1.8a12 12 0 1 1 19 14.6 12 12 0 1 1-19-14.6zm-1.2 1.7a12 12 0 1 1 19.2 14.4 12 12 0 1 1-19.2-14.4zm-1.2 1.8a12 12 0 1 1 19.4 14.2 12 12 0 1 1-19.4-14.2zm-1.2 1.8a12 12 0 1 1 19.6 14 12 12 0 1 1-19.6-14zm-1.2 1.8a12 12 0 1 1 19.8 13.7 12 12 0 1 1-19.8-13.7zm-1.1 1.8a12 12 0 1 1 19.9 13.5 12 12 0 1 1-19.9-13.5zm-1.1 1.8a12 12 0 1 1 20 13.3 12 12 0 1 1-20-13.3zm-1.1 1.9a12 12 0 1 1 20.1 13 12 12 0 1 1-20.1-13zm-1.1 1.8a12 12 0 1 1 20.3 12.8 12 12 0 1 1-20.3-12.8zm-1 1.9a12 12 0 1 1 20.4 12.5 12 12 0 1 1-20.5-12.5zm-1.1 1.8a12 12 0 1 1 20.6 12.4A12 12 0 1 1 91.2 165zm-1 2a12 12 0 1 1 20.7 12 12 12 0 1 1-20.7-12zm-1 1.8a12 12 0 1 1 20.9 11.9 12 12 0 1 1-21-11.9zm-1 1.9a12 12 0 1 1 21 11.6 12 12 0 1 1-21-11.6zm-1 1.9a12 12 0 1 1 21.2 11.4 12 12 0 1 1-21.1-11.4zm-.9 2a12 12 0 1 1 21.3 11 12 12 0 1 1-21.3-11zm-.9 1.8a12 12 0 1 1 21.4 11 12 12 0 1 1-21.4-11zm-.8 2a12 12 0 1 1 21.5 10.7 12 12 0 1 1-21.5-10.7zm-.9 1.9a12 12 0 1 1 21.6 10.4 12 12 0 1 1-21.6-10.4zm-.8 2a12 12 0 1 1 21.7 10.1A12 12 0 1 1 83 182.3zm-.8 2a12 12 0 1 1 21.8 9.9 12 12 0 1 1-21.8-10zm-.8 1.9a12 12 0 1 1 22 9.7 12 12 0 1 1-22-9.7zm-.8 2a12 12 0 1 1 22 9.4 12 12 0 1 1-22-9.4zm-.8 2a12 12 0 1 1 22.2 9.2 12 12 0 1 1-22.2-9.2zm-.7 2a12 12 0 1 1 22.3 9 12 12 0 1 1-22.3-9zm-.7 2a12 12 0 1 1 22.4 8.7 12 12 0 1 1-22.4-8.7zm-.7 2a12 12 0 1 1 22.5 8.5 12 12 0 1 1-22.5-8.5zm-.7 2a12 12 0 1 1 22.6 8.2 12 12 0 1 1-22.6-8.1zm-.6 2.1a12 12 0 1 1 22.7 8 12 12 0 1 1-22.7-8zm-.6 2a12 12 0 1 1 22.8 7.7 12 12 0 1 1-22.8-7.6zm-.6 2.1A12 12 0 1 1 98 212a12 12 0 1 1-22.9-7.4zm-.6 2a12 12 0 1 1 23 7.2 12 12 0 1 1-23-7.1zm-.5 2.1a12 12 0 1 1 23 7 12 12 0 1 1-23-7zm-.5 2.1a12 12 0 1 1 23 6.6 12 12 0 1 1-23-6.6zm-.5 2a12 12 0 1 1 23.1 6.4 12 12 0 1 1-23.1-6.3zm-.5 2.2a12 12 0 1 1 23.2 6 12 12 0 1 1-23.2-6zm-.5 2a12 12 0 1 1 23.3 6 12 12 0 1 1-23.3-6zm-.4 2.2a12 12 0 1 1 23.4 5.5 12 12 0 1 1-23.4-5.5zm-.4 2a12 12 0 1 1 23.4 5.4 12 12 0 1 1-23.4-5.3zm-.4 2.2a12 12 0 1 1 23.5 5 12 12 0 1 1-23.5-5zm-.3 2a12 12 0 1 1 23.5 4.8 12 12 0 1 1-23.5-4.7zm-.3 2.2a12 12 0 1 1 23.5 4.5 12 12 0 1 1-23.5-4.5zm-.4 2.1a12 12 0 1 1 23.7 4.2 12 12 0 1 1-23.7-4.2zm-.2 2.1a12 12 0 1 1 23.6 4 12 12 0 1 1-23.6-4zm-.3 2.1a12 12 0 1 1 23.7 3.8 12 12 0 1 1-23.7-3.8zm-.2 2.1a12 12 0 1 1 23.7 3.5 12 12 0 1 1-23.7-3.5zm-.3 2.2a12 12 0 1 1 23.9 3.2 12 12 0 1 1-23.9-3.2zm-.1 2.1a12 12 0 1 1 23.8 3 12 12 0 1 1-23.8-3zm-.2 2.1a12 12 0 1 1 23.9 2.7 12 12 0 1 1-24-2.7zm-.1 2.2a12 12 0 1 1 23.9 2.4 12 12 0 1 1-24-2.4zm-.2 2.1a12 12 0 1 1 24 2.1 12 12 0 1 1-24-2.1zm0 2.1a12 12 0 1 1 23.9 1.9 12 12 0 1 1-24-1.9zM68 251a12 12 0 1 1 24 1.6 12 12 0 1 1-24-1.6zm0 2a12 12 0 1 1 23.9 1.4 12 12 0 1 1-24-1.3zm-.1 2.2a12 12 0 1 1 24 1.1 12 12 0 1 1-24-1zm0 2.2a12 12 0 1 1 24 .8 12 12 0 1 1-24-.8zm0 2.1a12 12 0 1 1 24 .5 12 12 0 1 1-24-.5zm0 2.1a12 12 0 1 1 24 .3 12 12 0 1 1-24-.3zm.1 2.2a12 12 0 1 1 24 0 12 12 0 1 1-24 0zm.1 2a12 12 0 1 1 24-.2 12 12 0 1 1-24 .3zm.2 2.2a12 12 0 1 1 24-.5 12 12 0 1 1-24 .5zm.1 2.2a12 12 0 1 1 24-.8 12 12 0 1 1-24 .8zm.2 2.1a12 12 0 1 1 24-1 12 12 0 1 1-24 1zm.2 2.1a12 12 0 1 1 24-1.3 12 12 0 1 1-24 1.3zm.2 2.1a12 12 0 1 1 24-1.6 12 12 0 1 1-24 1.6zm.2 2.2a12 12 0 1 1 24-2 12 12 0 1 1-24 2zm.3 2.1a12 12 0 1 1 23.9-2.2 12 12 0 1 1-24 2.2zm.3 2.1a12 12 0 1 1 23.9-2.4 12 12 0 1 1-24 2.4zm.3 2.1a12 12 0 1 1 23.8-2.7 12 12 0 1 1-23.8 2.7zm.3 2.1a12 12 0 1 1 23.8-3 12 12 0 1 1-23.8 3zm.4 2.1a12 12 0 1 1 23.8-3.2 12 12 0 1 1-23.8 3.2zm.4 2.2a12 12 0 1 1 23.7-3.6 12 12 0 1 1-23.7 3.6zm.4 2a12 12 0 1 1 23.7-3.7 12 12 0 1 1-23.7 3.8zm.4 2.1a12 12 0 1 1 23.7-4 12 12 0 1 1-23.7 4zm.4 2.1a12 12 0 1 1 23.7-4.3 12 12 0 1 1-23.7 4.3zm.5 2.1a12 12 0 1 1 23.6-4.6 12 12 0 1 1-23.6 4.6zm.5 2a12 12 0 1 1 23.6-4.8 12 12 0 1 1-23.6 4.9zm.5 2.1a12 12 0 1 1 23.5-5.1 12 12 0 1 1-23.5 5.1zm.6 2.1a12 12 0 1 1 23.4-5.4 12 12 0 1 1-23.4 5.4zm.6 2a12 12 0 1 1 23.3-5.6 12 12 0 1 1-23.3 5.7zm.6 2.1a12 12 0 1 1 23.2-6 12 12 0 1 1-23.2 6zm.6 2a12 12 0 1 1 23.2-6.1 12 12 0 1 1-23.2 6.2zm.6 2.1a12 12 0 1 1 23.2-6.5A12 12 0 1 1 77 314zm.7 2a12 12 0 1 1 23-6.7 12 12 0 1 1-23 6.7zm.7 2a12 12 0 1 1 23-7 12 12 0 1 1-23 7zm.7 2a12 12 0 1 1 22.9-7.2 12 12 0 1 1-22.9 7.3zm.7 2.1a12 12 0 1 1 22.9-7.5 12 12 0 1 1-22.9 7.5zm.8 2a12 12 0 1 1 22.7-7.8 12 12 0 1 1-22.7 7.8zm.8 2a12 12 0 1 1 22.6-8 12 12 0 1 1-22.6 8zm.8 2a12 12 0 1 1 22.5-8.3 12 12 0 1 1-22.5 8.3zm.8 2a12 12 0 1 1 22.5-8.6A12 12 0 1 1 83 330zm.8 1.9a12 12 0 1 1 22.4-8.8 12 12 0 1 1-22.4 8.8zm1 2a12 12 0 1 1 22.2-9 12 12 0 1 1-22.3 9zm.8 2a12 12 0 1 1 22.2-9.4 12 12 0 1 1-22.2 9.3zm1 1.8a12 12 0 1 1 22-9.5 12 12 0 1 1-22 9.5zm.9 2a12 12 0 1 1 21.9-9.8 12 12 0 1 1-22 9.8zm1 1.9a12 12 0 1 1 21.7-10 12 12 0 1 1-21.8 10zm.9 1.9a12 12 0 1 1 21.7-10.3 12 12 0 1 1-21.7 10.3zm1 1.9a12 12 0 1 1 21.6-10.6 12 12 0 1 1-21.6 10.6zm1 1.8a12 12 0 1 1 21.5-10.7 12 12 0 1 1-21.5 10.7zm1 2a12 12 0 1 1 21.4-11.1 12 12 0 1 1-21.3 11zm1.1 1.8a12 12 0 1 1 21.2-11.3 12 12 0 1 1-21.2 11.3zm1.1 1.8a12 12 0 1 1 21.1-11.5 12 12 0 1 1-21 11.5zm1.1 1.8a12 12 0 1 1 21-11.7 12 12 0 1 1-21 11.7zm1.1 1.8a12 12 0 1 1 20.8-12 12 12 0 1 1-20.8 12zm1.2 1.8a12 12 0 1 1 20.7-12.2A12 12 0 1 1 98 358.3zm1.1 1.8a12 12 0 1 1 20.6-12.4A12 12 0 1 1 99 360zm1.2 1.8a12 12 0 1 1 20.4-12.7 12 12 0 1 1-20.4 12.7zm1.2 1.7a12 12 0 1 1 20.3-12.9 12 12 0 1 1-20.3 13zm1.2 1.8a12 12 0 1 1 20.2-13.1 12 12 0 1 1-20.2 13zm1.3 1.7a12 12 0 1 1 20-13.3 12 12 0 1 1-20 13.3zm1.2 1.7a12 12 0 1 1 19.9-13.5 12 12 0 1 1-19.9 13.5zm1.3 1.8a12 12 0 1 1 19.7-13.8 12 12 0 1 1-19.7 13.8zm1.3 1.7a12 12 0 1 1 19.6-14 12 12 0 1 1-19.6 14zm1.4 1.6a12 12 0 1 1 19.3-14.2 12 12 0 1 1-19.3 14.2zm1.3 1.7a12 12 0 1 1 19.2-14.5 12 12 0 1 1-19.2 14.5zm1.4 1.6a12 12 0 1 1 19-14.6 12 12 0 1 1-19 14.6zm1.3 1.7a12 12 0 1 1 18.9-14.9 12 12 0 1 1-18.9 14.9zm1.4 1.6a12 12 0 1 1 18.7-15 12 12 0 1 1-18.7 15zm1.5 1.6a12 12 0 1 1 18.5-15.3 12 12 0 1 1-18.5 15.3zm1.4 1.6a12 12 0 1 1 18.3-15.5 12 12 0 1 1-18.3 15.5zm1.4 1.6a12 12 0 1 1 18.2-15.8 12 12 0 1 1-18.2 15.8zm1.5 1.5a12 12 0 1 1 18-15.9 12 12 0 1 1-18 16zm1.5 1.5a12 12 0 1 1 17.8-16 12 12 0 1 1-17.8 16zm1.5 1.6a12 12 0 1 1 17.6-16.4 12 12 0 1 1-17.6 16.4zm1.5 1.5a12 12 0 1 1 17.5-16.5 12 12 0 1 1-17.5 16.5zm1.5 1.5a12 12 0 1 1 17.3-16.8 12 12 0 1 1-17.3 16.8zm1.6 1.4a12 12 0 1 1 17-16.9 12 12 0 1 1-17 17zm1.6 1.5a12 12 0 1 1 16.9-17.1 12 12 0 1 1-17 17zm1.6 1.4a12 12 0 1 1 16.6-17.3 12 12 0 1 1-16.6 17.3zm1.6 1.4a12 12 0 1 1 16.4-17.4 12 12 0 1 1-16.4 17.4zm1.6 1.4a12 12 0 1 1 16.3-17.6 12 12 0 1 1-16.3 17.6zm1.6 1.4a12 12 0 1 1 16.1-17.8 12 12 0 1 1-16 17.8zm1.7 1.4a12 12 0 1 1 15.9-18 12 12 0 1 1-16 18zm1.6 1.3a12 12 0 1 1 15.7-18.2 12 12 0 1 1-15.7 18.2zm1.7 1.3a12 12 0 1 1 15.5-18.3 12 12 0 1 1-15.5 18.3zm1.7 1.3a12 12 0 1 1 15.3-18.5 12 12 0 1 1-15.3 18.5zm1.7 1.3a12 12 0 1 1 15-18.7 12 12 0 1 1-15 18.7zm1.7 1.3a12 12 0 1 1 14.9-18.9 12 12 0 1 1-14.9 18.9zm1.8 1.2a12 12 0 1 1 14.6-19 12 12 0 1 1-14.6 19zm1.7 1.3a12 12 0 1 1 14.5-19.3 12 12 0 1 1-14.5 19.3zm1.8 1.2a12 12 0 1 1 14.2-19.4 12 12 0 1 1-14.2 19.4zm1.8 1.2a12 12 0 1 1 14-19.6 12 12 0 1 1-14 19.6zm1.8 1.1a12 12 0 1 1 13.7-19.7 12 12 0 1 1-13.7 19.7zm1.8 1.2a12 12 0 1 1 13.5-19.9 12 12 0 1 1-13.5 19.9zm1.8 1a12 12 0 1 1 13.3-20 12 12 0 1 1-13.3 20zm1.8 1.2a12 12 0 1 1 13.1-20.2 12 12 0 1 1-13 20.2zm1.9 1a12 12 0 1 1 12.8-20.2 12 12 0 1 1-12.8 20.3zm1.9 1.1a12 12 0 1 1 12.6-20.4 12 12 0 1 1-12.6 20.4zm1.8 1a12 12 0 1 1 12.4-20.5 12 12 0 1 1-12.4 20.6zm2 1.1a12 12 0 1 1 12-20.7 12 12 0 1 1-12 20.7zm1.8 1a12 12 0 1 1 11.9-20.9 12 12 0 1 1-12 20.9zm1.9 1a12 12 0 1 1 11.7-21 12 12 0 1 1-11.7 21zm1.9 1a12 12 0 1 1 11.4-21.2 12 12 0 1 1-11.4 21.1zm2 .8a12 12 0 1 1 11-21.2 12 12 0 1 1-11 21.2zm1.8 1a12 12 0 1 1 11-21.4 12 12 0 1 1-11 21.3zm2 .8A12 12 0 1 1 190 407a12 12 0 1 1-10.7 21.5zm1.9.9a12 12 0 1 1 10.4-21.7 12 12 0 1 1-10.4 21.7zm2 .8a12 12 0 1 1 10.1-21.7 12 12 0 1 1-10.2 21.7zm1.9.8a12 12 0 1 1 10-21.8 12 12 0 1 1-10 21.8zm2 .8a12 12 0 1 1 9.7-22 12 12 0 1 1-9.7 22zm2 .8a12 12 0 1 1 9.4-22 12 12 0 1 1-9.4 22zm2 .8a12 12 0 1 1 9.2-22.2 12 12 0 1 1-9.2 22.2zm2 .7a12 12 0 1 1 9-22.3 12 12 0 1 1-9 22.3zm2 .7a12 12 0 1 1 8.7-22.4 12 12 0 1 1-8.7 22.4zm2 .7a12 12 0 1 1 8.5-22.5 12 12 0 1 1-8.5 22.5zm2 .6a12 12 0 1 1 8.2-22.6 12 12 0 1 1-8.1 22.6zm2.1.7a12 12 0 1 1 8-22.7 12 12 0 1 1-8 22.7zm2 .6a12 12 0 1 1 7.7-22.8 12 12 0 1 1-7.6 22.8zm2.1.6a12 12 0 1 1 7.4-22.9 12 12 0 1 1-7.4 22.9zm2 .5a12 12 0 1 1 7.2-22.9 12 12 0 1 1-7.1 23zm2.1.6a12 12 0 1 1 7-23 12 12 0 1 1-7 23zm2.1.5a12 12 0 1 1 6.6-23 12 12 0 1 1-6.6 23zm2.1.5A12 12 0 1 1 220 417a12 12 0 1 1-6.3 23.2zm2 .5a12 12 0 1 1 6.2-23.3 12 12 0 1 1-6.1 23.3zm2.2.4a12 12 0 1 1 5.8-23.3 12 12 0 1 1-5.8 23.3zm2 .5a12 12 0 1 1 5.6-23.4 12 12 0 1 1-5.5 23.4zm2.2.4a12 12 0 1 1 5.3-23.5A12 12 0 1 1 222 442zm2 .3a12 12 0 1 1 5-23.5 12 12 0 1 1-5 23.5zm2.2.4A12 12 0 1 1 231 419a12 12 0 1 1-4.7 23.6zm2 .3a12 12 0 1 1 4.6-23.6 12 12 0 1 1-4.5 23.6zm2.2.3a12 12 0 1 1 4.2-23.6 12 12 0 1 1-4.2 23.6zm2.1.3a12 12 0 1 1 4-23.7 12 12 0 1 1-4 23.7zm2.2.3a12 12 0 1 1 3.6-23.8 12 12 0 1 1-3.6 23.8zm2 .2a12 12 0 1 1 3.5-23.8 12 12 0 1 1-3.4 23.8zm2.2.2a12 12 0 1 1 3.2-23.8 12 12 0 1 1-3.2 23.8zm2.1.2a12 12 0 1 1 3-23.9 12 12 0 1 1-3 23.9zm2.2.1a12 12 0 1 1 2.6-23.8 12 12 0 1 1-2.6 23.8zm2.1.2a12 12 0 1 1 2.3-24 12 12 0 1 1-2.3 24zm2.1 0a12 12 0 1 1 2.1-23.8 12 12 0 1 1-2 23.9zm2.2.2a12 12 0 1 1 1.8-24 12 12 0 1 1-1.8 24zm2.1 0a12 12 0 1 1 1.5-24 12 12 0 1 1-1.5 24zm2.1 0a12 12 0 1 1 1.3-23.9 12 12 0 1 1-1.3 24zm2.2.1a12 12 0 1 1 1-24 12 12 0 1 1-1 24zm2.1 0a12 12 0 1 1 .7-24 12 12 0 1 1-.7 24zm2.1 0a12 12 0 1 1 .5-24 12 12 0 1 1-.5 24zm2.2 0a12 12 0 1 1 .2-24.1 12 12 0 1 1-.2 24zm2.1-.2a12 12 0 1 1 0-24 12 12 0 1 1 0 24zm2.1 0a12 12 0 1 1-.3-24 12 12 0 1 1 .3 24zm2.2-.2a12 12 0 1 1-.7-24 12 12 0 1 1 .7 24zm2.1-.1a12 12 0 1 1-.9-24 12 12 0 1 1 1 24zm2.2-.2a12 12 0 1 1-1.2-24 12 12 0 1 1 1.2 24zm2-.2a12 12 0 1 1-1.4-24 12 12 0 1 1 1.5 24zm2.2-.2a12 12 0 1 1-1.7-24 12 12 0 1 1 1.7 24zm2.1-.3a12 12 0 1 1-2-24 12 12 0 1 1 2 24zm2.1-.3a12 12 0 1 1-2.2-23.9 12 12 0 1 1 2.2 24zm2.1-.3a12 12 0 1 1-2.5-23.8 12 12 0 1 1 2.6 23.8zm2.2-.3A12 12 0 1 1 283 419a12 12 0 1 1 2.8 23.8zm2-.3a12 12 0 1 1-3-23.8 12 12 0 1 1 3 23.8zm2.2-.4a12 12 0 1 1-3.4-23.8 12 12 0 1 1 3.4 23.8zm2.1-.4a12 12 0 1 1-3.6-23.7 12 12 0 1 1 3.6 23.7zm2-.4a12 12 0 1 1-3.8-23.7 12 12 0 1 1 3.9 23.7zm2.2-.4a12 12 0 1 1-4.2-23.7 12 12 0 1 1 4.2 23.7zm2-.5a12 12 0 1 1-4.3-23.6 12 12 0 1 1 4.4 23.6zm2.2-.5a12 12 0 1 1-4.7-23.6 12 12 0 1 1 4.7 23.6zm2-.5a12 12 0 1 1-5-23.5 12 12 0 1 1 5 23.5zm2-.5a12 12 0 1 1-5.2-23.5 12 12 0 1 1 5.3 23.5zm2.2-.6a12 12 0 1 1-5.6-23.4 12 12 0 1 1 5.6 23.4zm2-.6a12 12 0 1 1-5.8-23.3 12 12 0 1 1 5.8 23.3zm2-.6a12 12 0 1 1-6-23.2 12 12 0 1 1 6 23.2zm2.1-.6a12 12 0 1 1-6.3-23.2 12 12 0 1 1 6.3 23.2zm2-.7a12 12 0 1 1-6.5-23 12 12 0 1 1 6.5 23zm2-.7a12 12 0 1 1-6.8-23 12 12 0 1 1 6.9 23zm2-.7a12 12 0 1 1-7-22.9 12 12 0 1 1 7 23zm2.1-.7a12 12 0 1 1-7.4-22.8 12 12 0 1 1 7.4 22.8zm2-.7a12 12 0 1 1-7.6-22.8 12 12 0 1 1 7.6 22.8zm2-.8a12 12 0 1 1-7.9-22.7 12 12 0 1 1 8 22.7zm2-.8a12 12 0 1 1-8.2-22.6 12 12 0 1 1 8.2 22.6zm2-.8a12 12 0 1 1-8.4-22.5 12 12 0 1 1 8.4 22.5zm2-.8a12 12 0 1 1-8.7-22.4 12 12 0 1 1 8.6 22.4zm1.9-.9a12 12 0 1 1-9-22.3 12 12 0 1 1 9 22.3zm2-.9a12 12 0 1 1-9.2-22.2 12 12 0 1 1 9.1 22.2zm1.9-.9a12 12 0 1 1-9.4-22 12 12 0 1 1 9.4 22zm2-1a12 12 0 1 1-9.8-21.9 12 12 0 1 1 9.7 22zm1.8-.9a12 12 0 1 1-9.9-21.8 12 12 0 1 1 10 21.8zm2-1a12 12 0 1 1-10.2-21.7 12 12 0 1 1 10.2 21.8zm1.8-1a12 12 0 1 1-10.4-21.6 12 12 0 1 1 10.4 21.7zm2-1a12 12 0 1 1-10.7-21.5 12 12 0 1 1 10.6 21.6zm1.8-1a12 12 0 1 1-10.9-21.4 12 12 0 1 1 10.9 21.4zm1.9-1a12 12 0 1 1-11.2-21.3 12 12 0 1 1 11.2 21.3zm1.8-1.1a12 12 0 1 1-11.4-21.1A12 12 0 1 1 352 419zm1.8-1a12 12 0 1 1-11.6-21.1 12 12 0 1 1 11.6 21zm1.8-1.2a12 12 0 1 1-11.8-20.9 12 12 0 1 1 11.8 21zm1.8-1.1a12 12 0 1 1-12-20.8 12 12 0 1 1 12 20.8zm1.8-1.2a12 12 0 1 1-12.3-20.6 12 12 0 1 1 12.3 20.6zm1.8-1.2a12 12 0 1 1-12.6-20.4 12 12 0 1 1 12.6 20.4zm1.8-1.1a12 12 0 1 1-12.8-20.4 12 12 0 1 1 12.8 20.4zm1.7-1.3a12 12 0 1 1-13-20.2 12 12 0 1 1 13 20.2zm1.8-1.2a12 12 0 1 1-13.3-20 12 12 0 1 1 13.3 20zm1.7-1.3a12 12 0 1 1-13.5-19.9 12 12 0 1 1 13.5 20zm1.7-1.2a12 12 0 1 1-13.7-19.8 12 12 0 1 1 13.7 19.8zm1.7-1.3a12 12 0 1 1-14-19.6 12 12 0 1 1 14 19.6zm1.7-1.3a12 12 0 1 1-14.1-19.5 12 12 0 1 1 14.1 19.5zm1.7-1.4a12 12 0 1 1-14.4-19.2 12 12 0 1 1 14.4 19.2zm1.6-1.3a12 12 0 1 1-14.5-19.1 12 12 0 1 1 14.5 19zm1.7-1.4a12 12 0 1 1-14.8-19 12 12 0 1 1 14.8 19zm1.6-1.4a12 12 0 1 1-15-18.8 12 12 0 1 1 15 18.8zm1.6-1.4a12 12 0 1 1-15.2-18.6 12 12 0 1 1 15.2 18.6zm1.6-1.4a12 12 0 1 1-15.4-18.4 12 12 0 1 1 15.4 18.4zm1.6-1.5a12 12 0 1 1-15.7-18.2 12 12 0 1 1 15.7 18.2zm1.5-1.4a12 12 0 1 1-15.8-18.1 12 12 0 1 1 15.8 18zm1.6-1.5a12 12 0 1 1-16-17.9 12 12 0 1 1 16 17.9zm1.5-1.5a12 12 0 1 1-16.2-17.7 12 12 0 1 1 16.2 17.7zm1.5-1.5a12 12 0 1 1-16.4-17.5 12 12 0 1 1 16.4 17.5zm1.5-1.5a12 12 0 1 1-16.6-17.4 12 12 0 1 1 16.6 17.4zm1.5-1.6a12 12 0 1 1-16.8-17.1 12 12 0 1 1 16.8 17.1zm1.4-1.6a12 12 0 1 1-17-17 12 12 0 1 1 17 17zm1.5-1.5a12 12 0 1 1-17.2-16.8 12 12 0 1 1 17.2 16.8zm1.4-1.6a12 12 0 1 1-17.4-16.6 12 12 0 1 1 17.4 16.6zm1.4-1.6a12 12 0 1 1-17.6-16.4 12 12 0 1 1 17.6 16.4zm1.4-1.7a12 12 0 1 1-17.8-16.1 12 12 0 1 1 17.8 16.1zm1.4-1.6a12 12 0 1 1-18-16 12 12 0 1 1 18 16zm1.3-1.7a12 12 0 1 1-18.1-15.7 12 12 0 1 1 18.1 15.7zm1.3-1.7a12 12 0 1 1-18.3-15.5 12 12 0 1 1 18.3 15.5zm1.4-1.6a12 12 0 1 1-18.5-15.4 12 12 0 1 1 18.5 15.4zm1.3-1.7a12 12 0 1 1-18.7-15.2 12 12 0 1 1 18.7 15.2zm1.2-1.8a12 12 0 1 1-18.8-14.9 12 12 0 1 1 18.8 15zm1.3-1.7a12 12 0 1 1-19-14.7 12 12 0 1 1 19 14.7zm1.2-1.7a12 12 0 1 1-19.1-14.5 12 12 0 1 1 19.1 14.5zm1.2-1.8a12 12 0 1 1-19.3-14.3 12 12 0 1 1 19.3 14.3zm1.2-1.8a12 12 0 1 1-19.4-14 12 12 0 1 1 19.4 14zm1.2-1.8a12 12 0 1 1-19.6-13.8 12 12 0 1 1 19.6 13.8zm1.2-1.8a12 12 0 1 1-19.8-13.6 12 12 0 1 1 19.8 13.6zm1-1.8A12 12 0 1 1 397 342a12 12 0 1 1 19.9 13.4zm1.2-1.8a12 12 0 1 1-20-13.2 12 12 0 1 1 20 13.2zm1.1-1.9a12 12 0 1 1-20.2-12.9 12 12 0 1 1 20.2 13zm1-1.8a12 12 0 1 1-20.3-12.7 12 12 0 1 1 20.4 12.7zm1.1-1.9a12 12 0 1 1-20.5-12.5 12 12 0 1 1 20.5 12.5zm1-1.9a12 12 0 1 1-20.6-12.2 12 12 0 1 1 20.7 12.2zm1-1.8a12 12 0 1 1-20.7-12 12 12 0 1 1 20.8 12zm1-2a12 12 0 1 1-20.9-11.7 12 12 0 1 1 21 11.8zm1-1.8a12 12 0 1 1-21-11.6 12 12 0 1 1 21 11.6zm1-2a12 12 0 1 1-21.3-11.2 12 12 0 1 1 21.2 11.3zm.9-1.9a12 12 0 1 1-21.4-11 12 12 0 1 1 21.4 11zm.8-1.9a12 12 0 1 1-21.4-10.8 12 12 0 1 1 21.4 10.8zm1-2a12 12 0 1 1-21.7-10.5 12 12 0 1 1 21.6 10.6zm.7-1.8a12 12 0 1 1-21.6-10.3 12 12 0 1 1 21.6 10.3zm.9-2a12 12 0 1 1-21.8-10 12 12 0 1 1 21.8 10zm.8-2a12 12 0 1 1-22-9.8 12 12 0 1 1 22 9.8zm.8-2a12 12 0 1 1-22-9.5 12 12 0 1 1 22 9.5zm.7-2a12 12 0 1 1-22-9.3 12 12 0 1 1 22 9.4zm.8-2a12 12 0 1 1-22.2-9 12 12 0 1 1 22.2 9zm.7-2A12 12 0 1 1 412 310a12 12 0 1 1 22.3 8.8zm.7-2a12 12 0 1 1-22.4-8.6 12 12 0 1 1 22.4 8.6zm.7-2a12 12 0 1 1-22.6-8.3 12 12 0 1 1 22.6 8.3zm.6-2a12 12 0 1 1-22.6-8.1 12 12 0 1 1 22.6 8zm.7-2a12 12 0 1 1-22.8-7.9 12 12 0 1 1 22.8 7.8zm.6-2.1a12 12 0 1 1-22.8-7.6 12 12 0 1 1 22.8 7.6zm.5-2.1a12 12 0 1 1-22.8-7.3 12 12 0 1 1 22.8 7.3zm.6-2a12 12 0 1 1-23-7.1 12 12 0 1 1 23 7zm.5-2.1a12 12 0 1 1-23-6.8 12 12 0 1 1 23 6.8zm.5-2.1a12 12 0 1 1-23-6.5 12 12 0 1 1 23 6.5zm.5-2.1a12 12 0 1 1-23.2-6.2 12 12 0 1 1 23.2 6.2zm.5-2a12 12 0 1 1-23.3-6 12 12 0 1 1 23.3 6zm.4-2.2a12 12 0 1 1-23.3-5.7 12 12 0 1 1 23.3 5.7zm.5-2a12 12 0 1 1-23.4-5.5 12 12 0 1 1 23.4 5.4zm.3-2.2a12 12 0 1 1-23.4-5.2 12 12 0 1 1 23.4 5.2zm.4-2a12 12 0 1 1-23.5-5 12 12 0 1 1 23.5 5zm.4-2.2A12 12 0 1 1 419 281a12 12 0 1 1 23.6 4.7zm.3-2.1a12 12 0 1 1-23.6-4.4 12 12 0 1 1 23.6 4.4zm.3-2.1a12 12 0 1 1-23.7-4.1 12 12 0 1 1 23.7 4zm.3-2.1a12 12 0 1 1-23.8-4 12 12 0 1 1 23.8 4zm.2-2.1a12 12 0 1 1-23.7-3.7 12 12 0 1 1 23.7 3.7zm.2-2.2a12 12 0 1 1-23.8-3.3A12 12 0 1 1 444 275zm.2-2.1a12 12 0 1 1-23.8-3 12 12 0 1 1 23.8 3zm.2-2.1a12 12 0 1 1-23.8-2.8 12 12 0 1 1 23.8 2.8zm.2-2.2a12 12 0 1 1-24-2.5 12 12 0 1 1 24 2.5zm.1-2a12 12 0 1 1-24-2v-.4a12 12 0 0 1 24 1.3v1zm.1-2.2a12 12 0 1 1-24-2 12 12 0 1 1 24 2zm0-2.1a12 12 0 1 1-23.9-1.8 12 12 0 1 1 24 1.8zm.2-2.2a12 12 0 1 1-24-1.5 12 12 0 1 1 24 1.5zm0-2.1a12 12 0 1 1-24-1.2 12 12 0 1 1 24 1.2zm0-2.1a12 12 0 1 1-24-1 12 12 0 1 1 24 1zm0-2.2a12 12 0 1 1-24-.7 12 12 0 1 1 24 .7zm0-2.1a12 12 0 1 1-24-.4 12 12 0 1 1 24 .4zm-.1-2.2a12 12 0 1 1-24-.1 12 12 0 1 1 24 .1zm0-2.1a12 12 0 1 1-24.1.1 12 12 0 1 1 24-.1zm-.2-2.1a12 12 0 1 1-24 .4 12 12 0 1 1 24-.4zm-.1-2.2a12 12 0 1 1-24 .7 12 12 0 1 1 24-.7zm-.2-2.1a12 12 0 1 1-24 1 12 12 0 1 1 24-1zm-.1-2.1a12 12 0 1 1-24 1.2 12 12 0 1 1 24-1.2zm-.2-2.1a12 12 0 1 1-24 1.4 12 12 0 1 1 24-1.4zm-.3-2.2a12 12 0 1 1-24 1.8 12 12 0 1 1 24-1.8zm-.2-2a12 12 0 1 1-24 2 12 12 0 1 1 24-2zm-.3-2.2a12 12 0 1 1-24 2.3 12 12 0 1 1 24-2.3zm-.3-2.1a12 12 0 1 1-23.9 2.5 12 12 0 1 1 23.9-2.5zm-.3-2.1a12 12 0 1 1-23.9 2.8 12 12 0 1 1 23.9-2.8zm-.4-2.2a12 12 0 1 1-23.8 3.1 12 12 0 1 1 23.8-3zm-.3-2a12 12 0 1 1-23.8 3.3A12 12 0 1 1 442 222zm-.4-2.2a12 12 0 1 1-23.8 3.7 12 12 0 1 1 23.8-3.7zm-.4-2a12 12 0 1 1-23.7 3.8 12 12 0 1 1 23.7-3.9zm-.5-2.2a12 12 0 1 1-23.6 4.2 12 12 0 1 1 23.6-4.2zm-.5-2a12 12 0 1 1-23.6 4.4 12 12 0 1 1 23.6-4.4zm-.4-2.1a12 12 0 1 1-23.6 4.7 12 12 0 1 1 23.6-4.7zm-.6-2a12 12 0 1 1-23.4 5 12 12 0 1 1 23.4-5zm-.5-2.1a12 12 0 1 1-23.4 5.2 12 12 0 1 1 23.4-5.2zm-.5-2.1a12 12 0 1 1-23.4 5.5 12 12 0 1 1 23.4-5.5zm-.6-2a12 12 0 1 1-23.3 5.7 12 12 0 1 1 23.3-5.8zm-.6-2.1a12 12 0 1 1-23.3 6 12 12 0 1 1 23.3-6zm-.7-2a12 12 0 1 1-23.1 6.3 12 12 0 1 1 23.1-6.4zm-.6-2.1a12 12 0 1 1-23.1 6.6 12 12 0 1 1 23-6.6zm-.7-2a12 12 0 1 1-23 6.8 12 12 0 1 1 23-6.8zm-.7-2a12 12 0 1 1-23 7 12 12 0 1 1 23-7zm-.7-2a12 12 0 1 1-22.9 7.3 12 12 0 1 1 22.9-7.4zm-.8-2a12 12 0 1 1-22.7 7.6 12 12 0 1 1 22.7-7.7zm-.7-2a12 12 0 1 1-22.7 7.8 12 12 0 1 1 22.7-7.8zm-.8-2a12 12 0 1 1-22.6 8 12 12 0 1 1 22.6-8zm-.8-2a12 12 0 1 1-22.5 8.4 12 12 0 1 1 22.5-8.4zm-.9-2a12 12 0 1 1-22.4 8.6 12 12 0 1 1 22.4-8.6zm-.8-2a12 12 0 1 1-22.3 9 12 12 0 1 1 22.3-9zm-.9-1.9a12 12 0 1 1-22.2 9.1 12 12 0 1 1 22.2-9.1zm-1-2a12 12 0 1 1-22 9.5 12 12 0 1 1 22-9.4zm-.8-1.9a12 12 0 1 1-22 9.7 12 12 0 1 1 22-9.7zm-1-1.9a12 12 0 1 1-21.9 10 12 12 0 1 1 22-10zm-1-1.9a12 12 0 1 1-21.7 10.1 12 12 0 1 1 21.8-10.1zm-1-1.9a12 12 0 1 1-21.6 10.4 12 12 0 1 1 21.7-10.4zm-1-1.9a12 12 0 1 1-21.5 10.7 12 12 0 1 1 21.6-10.7zm-1-1.9a12 12 0 1 1-21.4 11 12 12 0 1 1 21.4-11zm-1-1.8a12 12 0 1 1-21.3 11 12 12 0 1 1 21.3-11zM419 160a12 12 0 1 1-21.2 11.4A12 12 0 1 1 419 160zm-1-1.8a12 12 0 1 1-21.1 11.6 12 12 0 1 1 21-11.6zm-1.2-1.8a12 12 0 1 1-20.9 11.8 12 12 0 1 1 21-11.8zm-1.1-1.8a12 12 0 1 1-20.8 12 12 12 0 1 1 20.8-12zm-1.2-1.8a12 12 0 1 1-20.6 12.3 12 12 0 1 1 20.6-12.3zm-1.1-1.8a12 12 0 1 1-20.5 12.6 12 12 0 1 1 20.5-12.6zm-1.2-1.7a12 12 0 1 1-20.4 12.7 12 12 0 1 1 20.4-12.7zm-1.2-1.8a12 12 0 1 1-20.3 13 12 12 0 1 1 20.3-13zm-1.3-1.7a12 12 0 1 1-20 13.2 12 12 0 1 1 20-13.2zm-1.2-1.8a12 12 0 1 1-20 13.5 12 12 0 1 1 20-13.5zm-1.3-1.7a12 12 0 1 1-19.8 13.7 12 12 0 1 1 19.8-13.7zm-1.3-1.7a12 12 0 1 1-19.6 13.9 12 12 0 1 1 19.6-13.9zm-1.3-1.7a12 12 0 1 1-19.5 14.1 12 12 0 1 1 19.5-14zm-1.3-1.7a12 12 0 1 1-19.3 14.4 12 12 0 1 1 19.3-14.4zm-1.4-1.6a12 12 0 1 1-19.1 14.5 12 12 0 1 1 19.1-14.5zm-1.4-1.7a12 12 0 1 1-19 14.8 12 12 0 1 1 19-14.8zm-1.3-1.6a12 12 0 1 1-18.8 15 12 12 0 1 1 18.8-15zm-1.4-1.6A12 12 0 1 1 379 146a12 12 0 1 1 18.7-15.2zm-1.5-1.6a12 12 0 1 1-18.4 15.4 12 12 0 1 1 18.4-15.4zm-1.4-1.6a12 12 0 1 1-18.3 15.6 12 12 0 1 1 18.3-15.6zm-1.5-1.5a12 12 0 1 1-18 15.8 12 12 0 1 1 18-15.8zm-1.4-1.6a12 12 0 1 1-18 16 12 12 0 1 1 18-16zm-1.5-1.5a12 12 0 1 1-17.8 16.2 12 12 0 1 1 17.8-16.2zm-1.6-1.5a12 12 0 1 1-17.5 16.4 12 12 0 1 1 17.5-16.4zm-1.5-1.5a12 12 0 1 1-17.3 16.6 12 12 0 1 1 17.3-16.6zm-1.5-1.5a12 12 0 1 1-17.2 16.8 12 12 0 1 1 17.2-16.8zm-1.6-1.4a12 12 0 1 1-17 17 12 12 0 1 1 17-17zm-1.6-1.5a12 12 0 1 1-16.8 17.2 12 12 0 1 1 16.8-17.2zm-1.6-1.4a12 12 0 1 1-16.6 17.3 12 12 0 1 1 16.6-17.3zm-1.6-1.4a12 12 0 1 1-16.4 17.5 12 12 0 1 1 16.4-17.5zm-1.6-1.4a12 12 0 1 1-16.2 17.7 12 12 0 1 1 16.2-17.7zm-1.6-1.4a12 12 0 1 1-16 18 12 12 0 1 1 16-18zm-1.7-1.3a12 12 0 1 1-15.8 18 12 12 0 1 1 15.8-18zm-1.7-1.4a12 12 0 1 1-15.6 18.3 12 12 0 1 1 15.6-18.3zm-1.6-1.3a12 12 0 1 1-15.4 18.5 12 12 0 1 1 15.4-18.5zm-1.7-1.3a12 12 0 1 1-15.2 18.6 12 12 0 1 1 15.2-18.6zm-1.8-1.3a12 12 0 1 1-15 18.8 12 12 0 1 1 15-18.8zm-1.7-1.2a12 12 0 1 1-14.7 19 12 12 0 1 1 14.7-19zm-1.7-1.3a12 12 0 1 1-14.6 19.2 12 12 0 1 1 14.6-19.2zm-1.8-1.2a12 12 0 1 1-14.3 19.3 12 12 0 1 1 14.3-19.3zm-1.8-1.2a12 12 0 1 1-14 19.5 12 12 0 1 1 14-19.5zm-1.8-1.2a12 12 0 1 1-13.8 19.7A12 12 0 1 1 359 97.3zm-1.8-1.1a12 12 0 1 1-13.6 19.8 12 12 0 1 1 13.6-19.8zm-1.8-1.1A12 12 0 1 1 342 115a12 12 0 1 1 13.4-20zm-1.8-1.2a12 12 0 1 1-13.2 20.1 12 12 0 1 1 13.2-20zm-1.8-1a12 12 0 1 1-13 20.2 12 12 0 1 1 13-20.3zm-1.9-1.1a12 12 0 1 1-12.7 20.3 12 12 0 1 1 12.7-20.3zm-1.9-1a12 12 0 1 1-12.5 20.4A12 12 0 1 1 348 90.7zm-1.8-1.1a12 12 0 1 1-12.3 20.6 12 12 0 1 1 12.3-20.6zm-2-1a12 12 0 1 1-12 20.8 12 12 0 1 1 12-20.8zm-1.8-1a12 12 0 1 1-11.8 21 12 12 0 1 1 11.8-21zm-2-1a12 12 0 1 1-11.5 21 12 12 0 1 1 11.6-21zm-1.8-1a12 12 0 1 1-11.3 21.3 12 12 0 1 1 11.3-21.2zm-2-.8a12 12 0 1 1-11 21.3 12 12 0 1 1 11-21.3zm-1.9-1a12 12 0 1 1-10.8 21.5A12 12 0 1 1 334.7 84zm-1.9-.8a12 12 0 1 1-10.6 21.6A12 12 0 1 1 332.8 83zm-1.9-.8a12 12 0 1 1-10.3 21.7 12 12 0 1 1 10.3-21.7zm-2-.9a12 12 0 1 1-10 21.8 12 12 0 1 1 10-21.8zm-2-.8a12 12 0 1 1-9.8 22 12 12 0 1 1 9.8-22zm-2-.8a12 12 0 1 1-9.5 22 12 12 0 1 1 9.5-22zm-2-.7a12 12 0 1 1-9.3 22.1 12 12 0 1 1 9.4-22.1zm-2-.8a12 12 0 1 1-9 22.3 12 12 0 1 1 9-22.3zm-2-.7a12 12 0 1 1-8.8 22.3 12 12 0 1 1 8.8-22.3zm-2-.7a12 12 0 1 1-8.6 22.4A12 12 0 1 1 317 77zm-2-.7a12 12 0 1 1-8.3 22.6 12 12 0 1 1 8.3-22.6zm-2-.6a12 12 0 1 1-8.1 22.6 12 12 0 1 1 8-22.6zm-2.1-.6a12 12 0 1 1-7.8 22.7 12 12 0 1 1 7.8-22.7zm-2-.7a12 12 0 1 1-7.6 22.9 12 12 0 1 1 7.5-22.9zm-2.1-.5a12 12 0 1 1-7.3 22.9 12 12 0 1 1 7.3-23zm-2-.6a12 12 0 1 1-7 23 12 12 0 1 1 7-23zm-2.2-.5a12 12 0 1 1-6.7 23 12 12 0 1 1 6.7-23zm-2-.5a12 12 0 1 1-6.5 23.1 12 12 0 1 1 6.5-23.1zm-2.1-.5a12 12 0 1 1-6.2 23.2 12 12 0 1 1 6.2-23.2zm-2.1-.5a12 12 0 1 1-6 23.3 12 12 0 1 1 6-23.3zm-2-.4a12 12 0 1 1-5.8 23.3 12 12 0 1 1 5.7-23.3zm-2.2-.4a12 12 0 1 1-5.4 23.4 12 12 0 1 1 5.4-23.4zm-2-.4a12 12 0 1 1-5.2 23.4A12 12 0 1 1 290 70zm-2.2-.4a12 12 0 1 1-4.9 23.5 12 12 0 1 1 4.9-23.5zm-2.1-.3a12 12 0 1 1-4.6 23.5 12 12 0 1 1 4.6-23.5zm-2.1-.3a12 12 0 1 1-4.4 23.6 12 12 0 1 1 4.4-23.6zm-2.1-.3a12 12 0 1 1-4.1 23.6 12 12 0 1 1 4-23.6zm-2.2-.3a12 12 0 1 1-3.8 23.7 12 12 0 1 1 3.8-23.7zm-2-.3a12 12 0 1 1-3.6 23.8 12 12 0 1 1 3.5-23.8zm-2.2-.2a12 12 0 1 1-3.3 23.8 12 12 0 1 1 3.3-23.8zm-2.1-.2a12 12 0 1 1-3 23.9 12 12 0 1 1 3-23.9zm-2.2-.1a12 12 0 1 1-2.7 23.8 12 12 0 1 1 2.7-23.8zm-2-.2a12 12 0 1 1-2.6 23.9 12 12 0 1 1 2.5-23.9zm135.6 333.8c7.8-3.1 17-1.6 23.3 4.7l41.8 41.8a21.5 21.5 0 0 1-30.4 30.4l-41.8-41.8c-6.5-6.5-8-16-4.4-24l-.3-.2-19-19.1a8 8 0 0 1 11.3-11.3l19 19 .5.5zm-137.8-334a12 12 0 0 1-1.3 24h-.3a12 12 0 0 1 1.3-24h.3z" fill="#9C9EA1" fill-rule="nonzero"/><g fill-rule="nonzero"><use fill="#000" filter="url(#u)" xlink:href="#v"/><rect stroke="url(#l)" stroke-width="16" stroke-linejoin="square" x="8" y="8" width="496" height="496" rx="115"/></g></g><g mask="url(#b)"><rect fill="#191B1E" fill-rule="nonzero" width="512" height="512" rx="115"/><g fill-rule="nonzero"><use fill="#000" filter="url(#w)" xlink:href="#x"/><rect stroke="url(#l)" stroke-width="16" stroke-linejoin="square" x="8" y="8" width="496" height="496" rx="115"/></g><g transform="translate(106 105)"><mask id="A" fill="#fff"><use xlink:href="#y"/></mask><path d="M160.3 170.9h34a8 8 0 0 1 8 8v131h-50V179a8 8 0 0 1 8-8z" fill="url(#z)" fill-rule="nonzero" mask="url(#A)"/><path d="M223 85.8h34.1a8 8 0 0 1 8 8V287h-50V93.8a8 8 0 0 1 8-8z" fill="url(#B)" fill-rule="nonzero" mask="url(#A)"/><path d="M96.6 135.2h34a8 8 0 0 1 8 8v165h-50v-165a8 8 0 0 1 8-8z" fill="url(#C)" fill-rule="nonzero" mask="url(#A)"/><path d="M32 181h34a8 8 0 0 1 8 8V287H24v-98.2a8 8 0 0 1 8-8z" fill="url(#D)" fill-rule="nonzero" mask="url(#A)"/><path stroke="#6078EA" stroke-width="3" fill="#6078EA" fill-rule="nonzero" mask="url(#A)" d="M119.6 59.3L124 51l46.4 24.7L166 84zM59 94l-5.2-7.8 48-34L107 60zM187 80l-8-4.8 57-77 8 4.8z"/><path d="M49.3 117.2a21.1 21.1 0 1 1 0-42.2 21.1 21.1 0 0 1 0 42.2zm-.1-13.2a8 8 0 1 0 0-16 8 8 0 0 0 0 16zm64-32.8a21.1 21.1 0 1 1 0-42.2 21.1 21.1 0 0 1 0 42.2zm0-13.2a8 8 0 1 0 0-16 8 8 0 0 0 0 16zm64 49.2a21.1 21.1 0 1 1 0-42.2 21.1 21.1 0 0 1 0 42.2zm0-13.2a8 8 0 1 0 0-16 8 8 0 0 0 0 16z" fill="#6078EA" fill-rule="nonzero" mask="url(#A)"/></g><g transform="translate(16 16)"><mask id="F" fill="#fff"><use xlink:href="#E"/></mask><path d="M375.8 372.5l11.5 11.5 3.7-3.6a8 8 0 0 1 11.3 0l60.8 60.8a8 8 0 0 1 0 11.3l-19 19.1a8 8 0 0 1-11.4 0l-60.8-60.8a8 8 0 0 1 0-11.3l4.1-4.2-11.9-11.9a189 189 0 1 1 11.7-11zM241 405a165 165 0 1 0 0-330 165 165 0 0 0 0 330z" fill="#9C9EA1" fill-rule="nonzero" mask="url(#F)"/></g></g></g></svg>
