<svg viewBox="0 0 512 512" xmlns="http://www.w3.org/2000/svg" xmlns:xlink="http://www.w3.org/1999/xlink"><defs><rect id="measure" width="512" height="512" rx="114"/><linearGradient x1="73.2%" y1="50%" x2="28.1%" y2="50%" id="d"><stop stop-color="#B1F41B" offset="0%"/><stop stop-color="#70CC23" offset="100%"/></linearGradient><path d="M24 0h272v256H24a24 24 0 0 1-24-24V24A24 24 0 0 1 24 0z" id="c"/><path d="M4 176h60a16 16 0 0 1 16 16v128a16 16 0 0 1-16 16H4V176z" id="f"/><filter x="-18.4%" y="-8.8%" width="136.8%" height="117.5%" filterUnits="objectBoundingBox" id="g"><feGaussianBlur stdDeviation="8.5" in="SourceAlpha" result="shadowBlurInner1"/><feOffset dx="-11" dy="-9" in="shadowBlurInner1" result="shadowOffsetInner1"/><feComposite in="shadowOffsetInner1" in2="SourceAlpha" operator="arithmetic" k2="-1" k3="1" result="shadowInnerInner1"/><feColorMatrix values="0 0 0 0 0.376470588 0 0 0 0 0.470588235 0 0 0 0 0.917647059 0 0 0 1 0" in="shadowInnerInner1"/></filter><path d="M400.5 19.3v477.4" id="i"/><filter x="-3600%" y="-7%" width="6300%" height="113.1%" filterUnits="objectBoundingBox" id="h"><feMorphology radius="8" operator="dilate" in="SourceAlpha" result="shadowSpreadOuter1"/><feOffset dx="-5" dy="-2" in="shadowSpreadOuter1" result="shadowOffsetOuter1"/><feMorphology radius="8" in="SourceAlpha" result="shadowInner"/><feOffset dx="-5" dy="-2" in="shadowInner" result="shadowInner"/><feComposite in="shadowOffsetOuter1" in2="shadowInner" operator="out" result="shadowOffsetOuter1"/><feGaussianBlur stdDeviation="7" in="shadowOffsetOuter1" result="shadowBlurOuter1"/><feColorMatrix values="0 0 0 0 0.0466904177 0 0 0 0 0.0510402059 0 0 0 0 0.0568399235 0 0 0 1 0" in="shadowBlurOuter1"/></filter><linearGradient x1="50%" y1="1.7%" x2="50%" y2="95.5%" id="l"><stop stop-color="#41474D" offset="0%"/><stop stop-color="#222529" offset="100%"/></linearGradient><rect id="k" width="512" height="512" rx="114"/><filter x="-2.1%" y="-2.1%" width="104.3%" height="104.3%" filterUnits="objectBoundingBox" id="j"><feMorphology radius="2.5" operator="dilate" in="SourceAlpha" result="shadowSpreadOuter1"/><feOffset in="shadowSpreadOuter1" result="shadowOffsetOuter1"/><feMorphology radius="18.5" in="SourceAlpha" result="shadowInner"/><feOffset in="shadowInner" result="shadowInner"/><feComposite in="shadowOffsetOuter1" in2="shadowInner" operator="out" result="shadowOffsetOuter1"/><feGaussianBlur stdDeviation="2" in="shadowOffsetOuter1" result="shadowBlurOuter1"/><feColorMatrix values="0 0 0 0 0 0 0 0 0 0 0 0 0 0 0 0 0 0 0.5 0" in="shadowBlurOuter1"/></filter></defs><g fill="none" fill-rule="evenodd"><mask id="b" fill="#fff"><use xlink:href="#measure"/></mask><use fill="#2D3136" fill-rule="nonzero" xlink:href="#measure"/><g mask="url(#b)"><path fill="#222529" d="M0 0h512v512H0z"/><g transform="translate(112 128)"><mask id="e" fill="#fff"><use xlink:href="#c"/></mask><use fill="url(#d)" fill-rule="nonzero" xlink:href="#c"/><g mask="url(#e)" fill="#70CC23" fill-opacity=".3" fill-rule="nonzero"><path style="mix-blend-mode:multiply" d="M-44.3-18.5L-24.5-30 193 346.8l-19.8 11.4zM-104 16l19.8-11.4 217.5 376.7-19.8 11.4zM15.4-53l19.7-11.4 217.6 376.8-19.8 11.4zM75.1-87.4l19.7-11.4 217.6 376.7-19.8 11.4zM134.8-121.9l19.7-11.4L372 243.5l-19.7 11.3z"/></g></g><g fill-rule="nonzero"><use fill="#6078EA" xlink:href="#f"/><use fill="#000" filter="url(#g)" xlink:href="#f"/></g><path d="M84.1 456c2.3 0 4.1 1.8 4.1 4.1V492a4.1 4.1 0 1 1-8.2 0V460c0-2.3 1.8-4.1 4.1-4.1zM212.1 456c2.3 0 4.1 1.8 4.1 4.1V500a4.1 4.1 0 1 1-8.2 0V460c0-2.3 1.8-4.1 4.1-4.1zM340.1 456c2.3 0 4.1 1.8 4.1 4.1V500a4.1 4.1 0 1 1-8.2 0V460c0-2.3 1.8-4.1 4.1-4.1zM116.1 456c2.3 0 4.1 1.8 4.1 4.1V500a4.1 4.1 0 1 1-8.2 0V460c0-2.3 1.8-4.1 4.1-4.1zM244.1 456c2.3 0 4.1 1.8 4.1 4.1V500a4.1 4.1 0 1 1-8.2 0V460c0-2.3 1.8-4.1 4.1-4.1zM148.1 456c2.3 0 4.1 1.8 4.1 4.1V500a4.1 4.1 0 1 1-8.2 0V460c0-2.3 1.8-4.1 4.1-4.1zM276.1 456c2.3 0 4.1 1.8 4.1 4.1V500a4.1 4.1 0 1 1-8.2 0V460c0-2.3 1.8-4.1 4.1-4.1zM180.1 432c2.3 0 4.1 1.8 4.1 4.1V500a4.1 4.1 0 1 1-8.2 0V436c0-2.3 1.8-4.1 4.1-4.1zM308.1 432c2.3 0 4.1 1.8 4.1 4.1V500a4.1 4.1 0 1 1-8.2 0V436c0-2.3 1.8-4.1 4.1-4.1zM372.3 456a4 4 0 0 1 4 4v40a4 4 0 1 1-8 0v-40a4 4 0 0 1 4-4z" fill="#606469" fill-rule="nonzero"/><g transform="matrix(1 0 0 -1 80 72)" fill="#606469" fill-rule="nonzero"><rect y="24" width="8" height="40" rx="4"/><rect x="128" y="24" width="8" height="40" rx="4"/><rect x="256" y="24" width="8" height="40" rx="4"/><rect x="32" y="24" width="8" height="40" rx="4"/><rect x="160" y="24" width="8" height="40" rx="4"/><rect x="64" y="24" width="8" height="40" rx="4"/><rect x="192" y="24" width="8" height="40" rx="4"/><rect x="96" width="8" height="64" rx="4"/><rect x="224" width="8" height="64" rx="4"/><rect x="288" y="24" width="8" height="40" rx="4"/></g><g stroke-linecap="square" fill-rule="nonzero"><use fill="#000" filter="url(#h)" xlink:href="#i"/><use stroke="#FFF" stroke-width="16" xlink:href="#i"/></g><g fill-rule="nonzero"><use fill="#000" filter="url(#j)" xlink:href="#k"/><rect stroke="url(#l)" stroke-width="16" stroke-linejoin="square" x="8" y="8" width="496" height="496" rx="114"/></g></g></g></svg>
