<?xml version="1.0" standalone="no"?>
<!DOCTYPE svg PUBLIC "-//W3C//DTD SVG 20010904//EN"
 "http://www.w3.org/TR/2001/REC-SVG-20010904/DTD/svg10.dtd">
<svg version="1.0" xmlns="http://www.w3.org/2000/svg"
 width="106.000000pt" height="110.000000pt" viewBox="0 0 106.000000 110.000000"
 preserveAspectRatio="xMidYMid meet">
<metadata>
</metadata>
<g transform="translate(0.000000,110.000000) scale(0.100000,-0.100000)"
fill="#ffffff" stroke="none">
<path d="M491 986 c-32 -86 -25 -127 26 -147 33 -12 53 4 53 42 0 28 -36 136
-50 152 -4 5 -17 -16 -29 -47z m29 -77 c0 -16 -4 -29 -10 -29 -5 0 -10 16 -10
36 0 21 4 33 10 29 6 -3 10 -19 10 -36z"/>
<path d="M635 908 c-15 -18 -47 -54 -72 -81 l-44 -47 -90 75 c-49 42 -89 72
-89 67 0 -4 7 -31 15 -58 23 -79 83 -125 165 -128 52 -1 88 22 116 75 15 30
37 119 31 126 -3 2 -17 -11 -32 -29z"/>
<path d="M345 738 c33 -35 60 -65 62 -67 1 -2 8 1 15 6 7 6 26 13 43 17 28 7
25 10 -69 57 -54 27 -100 49 -103 49 -3 0 20 -28 52 -62z"/>
<path d="M640 750 c-52 -27 -88 -49 -80 -50 8 0 28 -7 44 -15 16 -9 29 -14 30
-12 1 1 28 31 61 65 33 34 55 62 50 61 -6 0 -53 -22 -105 -49z"/>
<path d="M454 663 c-46 -26 -66 -44 -95 -83 -29 -39 -59 -94 -59 -108 0 -5 28
-15 63 -21 34 -7 72 -14 84 -17 12 -2 24 0 27 5 3 5 16 7 29 5 19 -4 20 -3 3
4 -15 6 -16 11 -7 16 7 5 21 0 34 -12 23 -21 38 -21 145 -1 28 6 52 15 52 20
0 16 -32 73 -49 87 -12 10 -12 12 -1 6 13 -7 13 -5 1 9 -7 9 -17 15 -21 12 -5
-3 -10 5 -12 17 -2 17 -10 22 -32 23 -17 0 -31 6 -34 15 -5 13 -3 13 12 1 9
-8 19 -11 22 -8 3 3 -4 10 -15 17 -12 6 -21 8 -21 5 0 -3 -10 1 -22 9 -29 21
-66 20 -104 -1z m105 -35 c17 -17 31 -35 31 -41 0 -15 -71 -87 -85 -87 -6 0
-31 20 -55 45 -47 48 -47 51 9 100 30 27 60 22 100 -17z m-117 -95 c40 -39 45
-52 27 -70 -12 -12 -103 7 -121 25 -14 14 18 82 39 82 9 0 34 -17 55 -37z
m227 2 c45 -51 41 -61 -26 -69 -32 -3 -66 -7 -77 -9 -10 -1 -23 6 -29 15 -10
14 -5 24 28 58 21 22 47 40 56 40 9 0 31 -16 48 -35z"/>
<path d="M276 409 c-8 -42 0 -50 9 -9 4 17 5 34 2 36 -2 3 -7 -10 -11 -27z"/>
<path d="M500 389 c0 -12 -7 -19 -20 -19 -15 0 -20 -7 -20 -25 0 -18 5 -25 20
-25 11 0 20 -7 20 -15 0 -9 9 -15 25 -15 16 0 25 6 25 15 0 8 9 15 20 15 15 0
20 7 20 25 0 18 -5 25 -20 25 -13 0 -20 7 -20 19 0 13 -7 19 -25 19 -18 0 -25
-6 -25 -19z"/>
<path d="M752 385 c0 -11 3 -29 8 -40 11 -25 11 1 0 35 -6 20 -8 21 -8 5z"/>
<path d="M729 288 c-104 -52 -314 -49 -441 7 -15 6 -18 2 -18 -24 0 -23 5 -31
18 -31 27 0 96 -75 88 -96 -6 -15 -9 -15 -30 5 -14 13 -30 36 -36 52 -13 29
-30 39 -30 17 0 -44 83 -123 141 -135 30 -6 33 -5 21 9 -7 9 -24 19 -38 22
-14 4 -22 11 -19 16 11 17 26 11 58 -25 26 -29 37 -35 72 -35 23 0 45 3 48 6
3 4 22 8 41 9 44 2 111 46 131 85 14 27 39 131 33 134 -2 1 -19 -6 -39 -16z
m-309 -52 l49 -1 -26 -27 c-34 -36 -50 -35 -90 4 -41 40 -45 67 -7 41 15 -9
47 -17 74 -17z m250 -21 c-19 -19 -39 -35 -45 -35 -6 0 -23 12 -38 28 l-26 27
55 1 c31 1 61 7 67 13 6 6 13 8 16 6 2 -3 -11 -21 -29 -40z m60 -7 c-35 -57
-57 -81 -69 -74 -6 4 -11 15 -11 24 0 22 60 82 82 82 16 0 16 -2 -2 -32z
m-161 -12 c39 -40 38 -60 -8 -95 -19 -14 -32 -20 -27 -13 5 8 0 12 -13 12 -12
0 -21 -5 -21 -11 0 -21 -69 46 -69 68 -1 26 52 73 83 73 12 0 37 -15 55 -34z
m75 -74 c2 -4 -11 -12 -30 -18 -33 -11 -34 -11 -18 7 18 20 39 25 48 11z"/>
</g>
</svg>
